<?xml version="1.0" encoding="UTF-8"?>
<svg version="1.1" xmlns="http://www.w3.org/2000/svg" width="280" height="280">
<path d="M0 0 C92.4 0 184.8 0 280 0 C280 92.4 280 184.8 280 280 C187.6 280 95.2 280 0 280 C0 187.6 0 95.2 0 0 Z " fill="#FEFEFE" transform="translate(0,0)"/>
<path d="M0 0 C33.99 0 67.98 0 103 0 C103 1.65 103 3.3 103 5 C103.90540527 4.97643433 103.90540527 4.97643433 104.82910156 4.95239258 C116.0151196 4.69971566 126.24933488 4.55468299 137 8 C138.91481099 8.44555159 140.83157564 8.88277294 142.75 9.3125 C153.20767834 11.92691958 163.52447091 15.86742174 173 21 C173 21.66 173 22.32 173 23 C174.32 23 175.64 23 177 23 C177 23.66 177 24.32 177 25 C177.66 25 178.32 25 179 25 C179 25.66 179 26.32 179 27 C179.61875 27.144375 180.2375 27.28875 180.875 27.4375 C183 28 183 28 185 29 C185 29.66 185 30.32 185 31 C185.5775 31.28875 186.155 31.5775 186.75 31.875 C187.86375 32.431875 187.86375 32.431875 189 33 C189.721875 33.28875 190.44375 33.5775 191.1875 33.875 C193 35 193 35 193.75 37.125 C193.8325 37.74375 193.915 38.3625 194 39 C194.66 39 195.32 39 196 39 C201 44.47619048 201 44.47619048 201 47 C201.66 47 202.32 47 203 47 C203 48.32 203 49.64 203 51 C203.66 51 204.32 51 205 51 C205.20413361 56.73842251 205.27141454 61.60539047 203 67 C203.66 67 204.32 67 205 67 C205 67.66 205 68.32 205 69 C208.0469629 70.69433918 210.82821466 71.49467112 214.25 72.125 C215.14203125 72.29257813 216.0340625 72.46015625 216.953125 72.6328125 C217.96632812 72.81457031 217.96632812 72.81457031 219 73 C219 74.98 219 76.96 219 79 C220.32 79 221.64 79 223 79 C223 79.66 223 80.32 223 81 C224.32 81.66 225.64 82.32 227 83 C227 84.98 227 86.96 227 89 C226.34 89 225.68 89 225 89 C225 89.66 225 90.32 225 91 C224.34 91 223.68 91 223 91 C223.433125 91.87398437 223.433125 91.87398437 223.875 92.765625 C227.42984028 100.61589727 228.62888683 108.19907039 225.8125 116.5 C223.09124448 120.25345589 219.82069391 122.45287072 216 125 C215.48088016 127.94901735 215.48088016 127.94901735 215.5625 131.3125 C215.54316406 132.44300781 215.52382812 133.57351562 215.50390625 134.73828125 C216.09265845 138.6092111 217.35088873 140.18190227 220 143 C223 146.64285714 223 146.64285714 223 150 C223.95712891 150.07347656 223.95712891 150.07347656 224.93359375 150.1484375 C225.75988281 150.22320312 226.58617187 150.29796875 227.4375 150.375 C228.26121094 150.44460937 229.08492188 150.51421875 229.93359375 150.5859375 C230.61550781 150.72257813 231.29742187 150.85921875 232 151 C232.33 151.66 232.66 152.32 233 153 C217.29657012 158.43143233 197.9354068 157.07228211 181.4375 157.55078125 C180.36351991 157.5824193 180.36351991 157.5824193 179.26784325 157.6146965 C161.65752558 158.12093992 144.04934612 158.15792469 126.43297577 158.12917709 C123.76474542 158.12492388 121.09651602 158.12200168 118.42828369 158.11929321 C94.2347074 158.0916218 70.04042926 158.00544014 45.84823608 157.73553467 C42.92965606 157.70304576 40.01111668 157.67591262 37.09243774 157.65411377 C21.56074554 157.53244046 6.13636385 156.95189988 -9.3359375 155.58203125 C-10.41984709 155.48899499 -10.41984709 155.48899499 -11.52565384 155.39407921 C-13.5602249 155.21590513 -15.59340124 155.02201473 -17.62646484 154.82739258 C-18.78721527 154.71655838 -19.9479657 154.60572418 -21.14389038 154.49153137 C-24 154 -24 154 -27 152 C-26.67 151.67 -26.34 151.34 -26 151 C-22.37 151 -18.74 151 -15 151 C-15 137.8 -15 124.6 -15 111 C-16.32 111 -17.64 111 -19 111 C-18.67 109.35 -18.34 107.7 -18 106 C-6.12 106 5.76 106 18 106 C18 104.35 18 102.7 18 101 C25.92 101 33.84 101 42 101 C42 69.98 42 38.96 42 7 C34.08 7 26.16 7 18 7 C11.98692417 6.71366306 6.0006261 6.42428669 0 6 C0 4.02 0 2.04 0 0 Z " fill="#BBBAB0" transform="translate(37,61)"/>
<path d="M0 0 C32.01 0 64.02 0 97 0 C97 30.03 97 60.06 97 91 C92.545 91.99 92.545 91.99 88 93 C88 94.98 88 96.96 88 99 C87.01 99 86.02 99 85 99 C85 67.98 85 36.96 85 5 C74.02345007 3.80729151 74.02345007 3.80729151 65 7 C59.06 7 53.12 7 47 7 C47 37.69 47 68.38 47 100 C53.27 100 59.54 100 66 100 C66 101.65 66 103.3 66 105 C69.96 105 73.92 105 78 105 C78.33 105.66 78.66 106.32 79 107 C58.34672319 108.32635723 37.68469789 108.09878805 17 108 C16.34 112.95 15.68 117.9 15 123 C64.17 123 113.34 123 164 123 C164 116.73 164 110.46 164 104 C172.91 104 181.82 104 191 104 C191 101.36 191 98.72 191 96 C191.5 93.5 191.5 93.5 192 92 C192.66 92 193.32 92 194 92 C194.33 95.96 194.66 99.92 195 104 C195.99 104 196.98 104 198 104 C198.13277344 103.22914063 198.26554688 102.45828125 198.40234375 101.6640625 C198.57894531 100.66117187 198.75554687 99.65828125 198.9375 98.625 C199.11152344 97.62726563 199.28554687 96.62953125 199.46484375 95.6015625 C200 93 200 93 201 91 C200.01 90.67 199.02 90.34 198 90 C197.26953125 87.93359375 197.26953125 87.93359375 196.8125 85.4375 C196.65394531 84.61121094 196.49539062 83.78492188 196.33203125 82.93359375 C196.22246094 82.29550781 196.11289063 81.65742188 196 81 C193.69 80.67 191.38 80.34 189 80 C188.67 82.64 188.34 85.28 188 88 C186.85402344 88.03738281 185.70804688 88.07476562 184.52734375 88.11328125 C182.99736554 88.17898584 181.46741903 88.24543159 179.9375 88.3125 C179.18533203 88.33505859 178.43316406 88.35761719 177.65820312 88.38085938 C172.44934265 88.62890035 168.60115215 89.48555127 164 92 C162.30620432 93.78455407 162.30620432 93.78455407 161.3125 95.875 C159.46369516 99.19305372 157.45906057 102.08555784 155 105 C155.41945035 102.48329792 155.82444332 100.34014107 157 98.0625 C158.3794871 95.46459959 158.3794871 95.46459959 159 90 C151.08 90 143.16 90 135 90 C135.33 87.03 135.66 84.06 136 81 C158.18006813 73.60664396 187.89355134 77.79599033 211 78 C214.58035093 85.16070186 211.69877543 97.26355769 211 105 C211.66 105 212.32 105 213 105 C214.11235685 109.45327637 214.12854871 113.80448773 214.09765625 118.36328125 C214.09553383 119.55125557 214.09553383 119.55125557 214.09336853 120.76322937 C214.08779457 123.27969219 214.07524693 125.79606431 214.0625 128.3125 C214.05748163 130.02408725 214.05291931 131.73567591 214.04882812 133.44726562 C214.03783368 137.63154508 214.02058707 141.81575719 214 146 C213.01 146 212.02 146 211 146 C211 146.99 211 147.98 211 149 C212.08539063 148.97679687 213.17078125 148.95359375 214.2890625 148.9296875 C215.73436807 148.9109173 217.17968115 148.89271844 218.625 148.875 C219.33785156 148.85824219 220.05070313 148.84148437 220.78515625 148.82421875 C225.2612164 148.78315398 228.77949278 149.30913433 233 151 C220.6943272 159.20378187 195.96003458 156.13836613 181.42578125 156.5546875 C180.71026281 156.57562344 179.99474438 156.59655937 179.25754356 156.61812973 C161.6507352 157.1215292 144.04576379 157.15791884 126.43297577 157.12917709 C123.76474542 157.12492388 121.09651602 157.12200168 118.42828369 157.11929321 C94.2347074 157.0916218 70.04042926 157.00544014 45.84823608 156.73553467 C42.92965606 156.70304576 40.01111668 156.67591262 37.09243774 156.65411377 C21.56074554 156.53244046 6.13636385 155.95189988 -9.3359375 154.58203125 C-10.41984709 154.48899499 -10.41984709 154.48899499 -11.52565384 154.39407921 C-13.5602249 154.21590513 -15.59340124 154.02201473 -17.62646484 153.82739258 C-18.78721527 153.71655838 -19.9479657 153.60572418 -21.14389038 153.49153137 C-24 153 -24 153 -27 151 C-26.67 150.67 -26.34 150.34 -26 150 C-22.37 150 -18.74 150 -15 150 C-15 136.8 -15 123.6 -15 110 C-16.32 110 -17.64 110 -19 110 C-18.67 108.35 -18.34 106.7 -18 105 C-6.12 105 5.76 105 18 105 C18 103.35 18 101.7 18 100 C25.92 100 33.84 100 42 100 C42 68.98 42 37.96 42 6 C34.08 6 26.16 6 18 6 C11.98692417 5.71366306 6.0006261 5.42428669 0 5 C0 3.35 0 1.7 0 0 Z " fill="#792942" transform="translate(37,62)"/>
<path d="M0 0 C22.12970213 0.02326103 43.30500626 4.5938718 62.86743164 15.19018555 C62.86743164 15.85018555 62.86743164 16.51018555 62.86743164 17.19018555 C64.18743164 17.19018555 65.50743164 17.19018555 66.86743164 17.19018555 C66.86743164 17.85018555 66.86743164 18.51018555 66.86743164 19.19018555 C67.52743164 19.19018555 68.18743164 19.19018555 68.86743164 19.19018555 C68.86743164 19.85018555 68.86743164 20.51018555 68.86743164 21.19018555 C69.48618164 21.33456055 70.10493164 21.47893555 70.74243164 21.62768555 C72.86743164 22.19018555 72.86743164 22.19018555 74.86743164 23.19018555 C74.86743164 23.85018555 74.86743164 24.51018555 74.86743164 25.19018555 C75.44493164 25.47893555 76.02243164 25.76768555 76.61743164 26.06518555 C77.35993164 26.43643555 78.10243164 26.80768555 78.86743164 27.19018555 C79.95024414 27.62331055 79.95024414 27.62331055 81.05493164 28.06518555 C82.86743164 29.19018555 82.86743164 29.19018555 83.61743164 31.31518555 C83.69993164 31.93393555 83.78243164 32.55268555 83.86743164 33.19018555 C84.52743164 33.19018555 85.18743164 33.19018555 85.86743164 33.19018555 C90.86743164 38.66637602 90.86743164 38.66637602 90.86743164 41.19018555 C91.52743164 41.19018555 92.18743164 41.19018555 92.86743164 41.19018555 C92.86743164 42.51018555 92.86743164 43.83018555 92.86743164 45.19018555 C93.52743164 45.19018555 94.18743164 45.19018555 94.86743164 45.19018555 C95.07156525 50.92860805 95.13884618 55.79557602 92.86743164 61.19018555 C93.52743164 61.19018555 94.18743164 61.19018555 94.86743164 61.19018555 C94.86743164 61.85018555 94.86743164 62.51018555 94.86743164 63.19018555 C97.91439454 64.88452473 100.6956463 65.68485667 104.11743164 66.31518555 C105.00946289 66.48276367 105.90149414 66.6503418 106.82055664 66.82299805 C107.49602539 66.94416992 108.17149414 67.0653418 108.86743164 67.19018555 C108.86743164 69.17018555 108.86743164 71.15018555 108.86743164 73.19018555 C110.18743164 73.19018555 111.50743164 73.19018555 112.86743164 73.19018555 C112.86743164 73.85018555 112.86743164 74.51018555 112.86743164 75.19018555 C114.84743164 76.18018555 114.84743164 76.18018555 116.86743164 77.19018555 C116.86743164 79.17018555 116.86743164 81.15018555 116.86743164 83.19018555 C116.20743164 83.19018555 115.54743164 83.19018555 114.86743164 83.19018555 C114.86743164 83.85018555 114.86743164 84.51018555 114.86743164 85.19018555 C114.20743164 85.19018555 113.54743164 85.19018555 112.86743164 85.19018555 C113.15618164 85.7728418 113.44493164 86.35549805 113.74243164 86.95581055 C117.29727192 94.80608282 118.49631847 102.38925594 115.67993164 110.69018555 C112.95867612 114.44364144 109.68812556 116.64305627 105.86743164 119.19018555 C105.3483118 122.1392029 105.3483118 122.1392029 105.42993164 125.50268555 C105.40092773 127.19844727 105.40092773 127.19844727 105.37133789 128.9284668 C105.9600901 132.79939665 107.21832037 134.37208781 109.86743164 137.19018555 C112.86743164 140.83304269 112.86743164 140.83304269 112.86743164 144.19018555 C108.90743164 144.19018555 104.94743164 144.19018555 100.86743164 144.19018555 C100.86743164 143.20018555 100.86743164 142.21018555 100.86743164 141.19018555 C101.85743164 141.19018555 102.84743164 141.19018555 103.86743164 141.19018555 C103.53743164 127.66018555 103.20743164 114.13018555 102.86743164 100.19018555 C102.20743164 100.19018555 101.54743164 100.19018555 100.86743164 100.19018555 C100.86743164 91.28018555 100.86743164 82.37018555 100.86743164 73.19018555 C75.81441675 73.62589015 50.85395424 74.23864609 25.86743164 76.19018555 C25.82424805 76.81159424 25.78106445 77.43300293 25.73657227 78.07324219 C25.66631836 78.88656006 25.59606445 79.69987793 25.52368164 80.5378418 C25.45987305 81.34487549 25.39606445 82.15190918 25.33032227 82.98339844 C24.86743164 85.19018555 24.86743164 85.19018555 22.36743164 87.62768555 C21.54243164 88.14331055 20.71743164 88.65893555 19.86743164 89.19018555 C19.53743164 89.85018555 19.20743164 90.51018555 18.86743164 91.19018555 C18.20743164 91.19018555 17.54743164 91.19018555 16.86743164 91.19018555 C16.86743164 91.85018555 16.86743164 92.51018555 16.86743164 93.19018555 C16.20743164 93.19018555 15.54743164 93.19018555 14.86743164 93.19018555 C14.53743164 95.50018555 14.20743164 97.81018555 13.86743164 100.19018555 C9.41243164 100.68518555 9.41243164 100.68518555 4.86743164 101.19018555 C3.87743164 98.22018555 3.87743164 98.22018555 2.86743164 95.19018555 C0.88743164 94.86018555 -1.09256836 94.53018555 -3.13256836 94.19018555 C-3.13256836 91.88018555 -3.13256836 89.57018555 -3.13256836 87.19018555 C-4.45256836 87.19018555 -5.77256836 87.19018555 -7.13256836 87.19018555 C-7.15569105 75.99445311 -7.17348307 64.7987263 -7.18438053 53.60297489 C-7.18960952 48.4049044 -7.19670746 43.20685018 -7.20800781 38.00878906 C-7.21883612 32.99676286 -7.22484507 27.98475237 -7.2274456 22.97271538 C-7.22929995 21.05606272 -7.23292076 19.13941098 -7.23829842 17.22276497 C-7.24550811 14.54790482 -7.24655933 11.87311041 -7.24609375 9.19824219 C-7.24968903 8.39767395 -7.2532843 7.59710571 -7.25698853 6.77227783 C-7.24412401 -0.01240993 -6.75826175 0.06333043 0 0 Z " fill="#F89F3B" transform="translate(147.132568359375,66.809814453125)"/>
<path d="M0 0 C4.95 0 9.9 0 15 0 C15 1.65 15 3.3 15 5 C16.0209375 4.98839844 17.041875 4.97679688 18.09375 4.96484375 C31.13097273 4.883939 43.92496662 5.45520694 57 6 C57 37.02 57 68.04 57 100 C49.08 100 41.16 100 33 100 C33 101.65 33 103.3 33 105 C22.11 105 11.22 105 0 105 C0 70.35 0 35.7 0 0 Z " fill="#BBBBAE" transform="translate(22,62)"/>
<path d="M0 0 C8.58 0 17.16 0 26 0 C26 1.32 26 2.64 26 4 C26.66 4 27.32 4 28 4 C28 16.54 28 29.08 28 42 C30.64 42 33.28 42 36 42 C35.34 40.02 34.68 38.04 34 36 C35.32 36 36.64 36 38 36 C38 37.65 38 39.3 38 41 C61.76 41 85.52 41 110 41 C110 39.68 110 38.36 110 37 C110.99 37 111.98 37 113 37 C113 38.32 113 39.64 113 41 C113.99515625 40.98839844 114.9903125 40.97679687 116.015625 40.96484375 C127.37417626 40.87680363 138.66187029 41.34339683 150 42 C150 43.32 150 44.64 150 46 C151.32 46 152.64 46 154 46 C154 44.68 154 43.36 154 42 C158.8888481 41.85515666 163.77776193 41.71286132 168.66674805 41.57275391 C170.32399412 41.52492249 171.98122152 41.47643899 173.63842773 41.42724609 C201.85449925 40.59108794 201.85449925 40.59108794 213 42 C213 41.34 213 40.68 213 40 C213.99 40 214.98 40 216 40 C216 40.66 216 41.32 216 42 C219.3 42 222.6 42 226 42 C226.33 41.34 226.66 40.68 227 40 C227.66 40.33 228.32 40.66 229 41 C229 41.66 229 42.32 229 43 C230.15757812 42.97679687 231.31515625 42.95359375 232.5078125 42.9296875 C234.04686851 42.91091852 235.58593155 42.89271954 237.125 42.875 C237.88554687 42.85824219 238.64609375 42.84148437 239.4296875 42.82421875 C244.03270731 42.78453754 247.66464004 43.24092423 252 45 C239.6943272 53.20378187 214.96003458 50.13836613 200.42578125 50.5546875 C199.3525036 50.5860914 199.3525036 50.5860914 198.25754356 50.61812973 C180.6507352 51.1215292 163.04576379 51.15791884 145.43297577 51.12917709 C142.76474542 51.12492388 140.09651602 51.12200168 137.42828369 51.11929321 C113.2347074 51.0916218 89.04042926 51.00544014 64.84823608 50.73553467 C61.92965606 50.70304576 59.01111668 50.67591262 56.09243774 50.65411377 C40.56074554 50.53244046 25.13636385 49.95189988 9.6640625 48.58203125 C8.94145611 48.52000708 8.21884972 48.4579829 7.47434616 48.39407921 C5.4397751 48.21590513 3.40659876 48.02201473 1.37353516 47.82739258 C0.21278473 47.71655838 -0.9479657 47.60572418 -2.14389038 47.49153137 C-5 47 -5 47 -8 45 C-7.505 44.505 -7.505 44.505 -7 44 C-3.37 44 0.26 44 4 44 C4 30.8 4 17.6 4 4 C2.68 4 1.36 4 0 4 C0 2.68 0 1.36 0 0 Z " fill="#2B2C3A" transform="translate(18,168)"/>
<path d="M0 0 C32.01 0 64.02 0 97 0 C97 30.03 97 60.06 97 91 C92.545 91.99 92.545 91.99 88 93 C88 94.98 88 96.96 88 99 C87.01 99 86.02 99 85 99 C85 67.98 85 36.96 85 5 C74.02345007 3.80729151 74.02345007 3.80729151 65 7 C59.06 7 53.12 7 47 7 C47 37.69 47 68.38 47 100 C53.27 100 59.54 100 66 100 C66 101.65 66 103.3 66 105 C69.96 105 73.92 105 78 105 C78.33 105.66 78.66 106.32 79 107 C58.34672319 108.32635723 37.68469789 108.09878805 17 108 C16.34 112.95 15.68 117.9 15 123 C14.67 123 14.34 123 14 123 C13.67 129.27 13.34 135.54 13 142 C13.66 142 14.32 142 15 142 C17 145 17 145 17 148 C14.36 148 11.72 148 9 148 C9 135.46 9 122.92 9 110 C8.34 110 7.68 110 7 110 C7 108.68 7 107.36 7 106 C-1.25 106 -9.5 106 -18 106 C-18 105.67 -18 105.34 -18 105 C-6.12 105 5.76 105 18 105 C18 103.35 18 101.7 18 100 C25.92 100 33.84 100 42 100 C42 68.98 42 37.96 42 6 C34.08 6 26.16 6 18 6 C11.98692417 5.71366306 6.0006261 5.42428669 0 5 C0 3.35 0 1.7 0 0 Z " fill="#3A2932" transform="translate(37,62)"/>
<path d="M0 0 C30.69 0.33 61.38 0.66 93 1 C92 18 92 18 91 20 C99.91 20 108.82 20 118 20 C118 21.65 118 23.3 118 25 C105.79 25 93.58 25 81 25 C81 23.68 81 22.36 81 21 C80.01 21 79.02 21 78 21 C78 22.32 78 23.64 78 25 C54.24 25 30.48 25 6 25 C6 23.35 6 21.7 6 20 C4.02 20 2.04 20 0 20 C0 13.4 0 6.8 0 0 Z " fill="#842443" transform="translate(50,184)"/>
<path d="M0 0 C0.33 0 0.66 0 1 0 C1 26.07 1 52.14 1 79 C-6.92 79 -14.84 79 -23 79 C-24 78 -24 78 -24.12025452 76.09544373 C-24.11803391 75.26271439 -24.11581329 74.42998505 -24.11352539 73.57202148 C-24.11344986 72.63112167 -24.11337433 71.69022186 -24.11329651 70.72080994 C-24.10813522 69.69790359 -24.10297394 68.67499725 -24.09765625 67.62109375 C-24.0962413 66.57929459 -24.09482635 65.53749542 -24.09336853 64.46412659 C-24.0877508 61.12188906 -24.0751953 57.77971743 -24.0625 54.4375 C-24.05748728 52.17773534 -24.05292398 49.91796963 -24.04882812 47.65820312 C-24.03777561 42.10544609 -24.02102024 36.55272775 -24 31 C-23.34 31 -22.68 31 -22 31 C-22 29.68 -22 28.36 -22 27 C-19.36 27 -16.72 27 -14 27 C-14 20.07 -14 13.14 -14 6 C-9.71 6 -5.42 6 -1 6 C-0.67 4.02 -0.34 2.04 0 0 Z " fill="#69BDBE" transform="translate(78,83)"/>
<path d="M0 0 C3.58035093 7.16070186 0.69877543 19.26355769 0 27 C0.66 27 1.32 27 2 27 C3.11235685 31.45327637 3.12854871 35.80448773 3.09765625 40.36328125 C3.0962413 41.15526413 3.09482635 41.94724701 3.09336853 42.76322937 C3.08779457 45.27969219 3.07524693 47.79606431 3.0625 50.3125 C3.05748163 52.02408725 3.05291931 53.73567591 3.04882812 55.44726562 C3.03783368 59.63154508 3.02058707 63.81575719 3 68 C2.01 68 1.02 68 0 68 C-0.495 69.485 -0.495 69.485 -1 71 C-1 70.34 -1 69.68 -1 69 C-4.96 68.67 -8.92 68.34 -13 68 C-13.02464705 62.32169922 -13.04283462 56.64342931 -13.05493164 50.96508789 C-13.05997256 49.03181415 -13.06680519 47.09854424 -13.07543945 45.1652832 C-13.08751565 42.39273128 -13.09323057 39.62022959 -13.09765625 36.84765625 C-13.10281754 35.97786636 -13.10797882 35.10807648 -13.11329651 34.21192932 C-13.11349185 32.14094186 -13.06208168 30.07005676 -13 28 C-12 27 -12 27 -9.4375 26.9375 C-8.2309375 26.9684375 -8.2309375 26.9684375 -7 27 C-7.22860572 25.05985937 -7.48369181 23.12282586 -7.75 21.1875 C-7.95882812 19.56908203 -7.95882812 19.56908203 -8.171875 17.91796875 C-9.15112247 14.46750715 -10.16135451 13.99592261 -13 12 C-13.828125 9.73828125 -13.828125 9.73828125 -14.25 7.3125 C-14.39953125 6.50425781 -14.5490625 5.69601563 -14.703125 4.86328125 C-14.80109375 4.24839844 -14.8990625 3.63351563 -15 3 C-17.31 2.67 -19.62 2.34 -22 2 C-22.33 4.64 -22.66 7.28 -23 10 C-24.71896484 10.05607422 -24.71896484 10.05607422 -26.47265625 10.11328125 C-28.00263446 10.17898584 -29.53258097 10.24543159 -31.0625 10.3125 C-31.81466797 10.33505859 -32.56683594 10.35761719 -33.34179688 10.38085938 C-38.55065735 10.62890035 -42.39884785 11.48555127 -47 14 C-48.69379568 15.78455407 -48.69379568 15.78455407 -49.6875 17.875 C-51.53630484 21.19305372 -53.54093943 24.08555784 -56 27 C-55.58054965 24.48329792 -55.17555668 22.34014107 -54 20.0625 C-52.6205129 17.46459959 -52.6205129 17.46459959 -52 12 C-59.92 12 -67.84 12 -76 12 C-75.67 9.03 -75.34 6.06 -75 3 C-52.81993187 -4.39335604 -23.10644866 -0.20400967 0 0 Z " fill="#551C34" transform="translate(248,140)"/>
<path d="M0 0 C4.95 0 9.9 0 15 0 C14.67 34.32 14.34 68.64 14 104 C9.38 104 4.76 104 0 104 C0 69.68 0 35.36 0 0 Z " fill="#C4D182" transform="translate(22,62)"/>
<path d="M0 0 C4.95 0 9.9 0 15 0 C14 5 14 5 13.0625 7.56640625 C8.5650546 20.2485409 9.16046374 33.69534264 9 47 C10.65 47 12.3 47 14 47 C14.09796875 46.30132812 14.1959375 45.60265625 14.296875 44.8828125 C14.44640625 43.97273438 14.5959375 43.06265625 14.75 42.125 C14.88921875 41.22007813 15.0284375 40.31515625 15.171875 39.3828125 C16 37 16 37 20 35 C20 54.14 20 73.28 20 93 C13.4 93 6.8 93 0 93 C0 62.31 0 31.62 0 0 Z " fill="#8ECDD1" transform="translate(84,69)"/>
<path d="M0 0 C1.6957905 5.93526674 2 9.43646084 2 16 C-27.04 16 -56.08 16 -86 16 C-86 5.875 -86 5.875 -84 1 C-55.99360963 0.13543491 -28.01898146 -0.13061057 0 0 Z " fill="#FCFAF9" transform="translate(138,169)"/>
<path d="M0 0 C32.01 0 64.02 0 97 0 C97 30.03 97 60.06 97 91 C92.545 91.99 92.545 91.99 88 93 C88 94.98 88 96.96 88 99 C87.01 99 86.02 99 85 99 C85 67.65 85 36.3 85 4 C79.06 4 73.12 4 67 4 C67 3.67 67 3.34 67 3 C33.835 2.505 33.835 2.505 0 2 C0 1.34 0 0.68 0 0 Z " fill="#532035" transform="translate(37,62)"/>
<path d="M0 0 C2.31 0 4.62 0 7 0 C8.11564125 2.60316291 8.99190778 4.95549279 9.5 7.75 C9.665 8.4925 9.83 9.235 10 10 C10.99 10.495 10.99 10.495 12 11 C11.68991116 12.60463449 11.37683713 14.20869231 11.0625 15.8125 C10.80146484 17.15248047 10.80146484 17.15248047 10.53515625 18.51953125 C10 21 10 21 9 24 C8.01 24 7.02 24 6 24 C4.73762269 21.47524538 4.90143596 19.68799534 4.9375 16.875 C4.94652344 15.96492187 4.95554687 15.05484375 4.96484375 14.1171875 C4.97644531 13.41851562 4.98804688 12.71984375 5 12 C4.34 12 3.68 12 3 12 C2.67 15.96 2.34 19.92 2 24 C-6.91 24 -15.82 24 -25 24 C-25 24.99 -25 25.98 -25 27 C-39.52 27 -54.04 27 -69 27 C-68.67 26.34 -68.34 25.68 -68 25 C-67.01 25 -66.02 25 -65 25 C-64.67 22.69 -64.34 20.38 -64 18 C-63.34 18 -62.68 18 -62 18 C-62 17.34 -62 16.68 -62 16 C-61.34 16 -60.68 16 -60 16 C-59.566875 15.071875 -59.566875 15.071875 -59.125 14.125 C-58 12 -58 12 -56 10 C-53.38623047 9.77294922 -53.38623047 9.77294922 -50.1171875 9.8046875 C-48.36728516 9.81435547 -48.36728516 9.81435547 -46.58203125 9.82421875 C-45.35871094 9.84097656 -44.13539063 9.85773438 -42.875 9.875 C-41.64394531 9.88402344 -40.41289062 9.89304688 -39.14453125 9.90234375 C-36.09616185 9.92597452 -33.04817618 9.95891946 -30 10 C-29.92362202 15.34009386 -30.71666332 18.24304858 -33 23 C-32.62488281 22.32453125 -32.24976563 21.6490625 -31.86328125 20.953125 C-25.65240689 10.12711731 -25.65240689 10.12711731 -20.10839844 8.41625977 C-17.97365745 7.99479921 -16.06403052 7.88587856 -13.890625 7.90234375 C-13.13652344 7.90556641 -12.38242188 7.90878906 -11.60546875 7.91210938 C-10.82816406 7.92048828 -10.05085938 7.92886719 -9.25 7.9375 C-8.45722656 7.94201172 -7.66445312 7.94652344 -6.84765625 7.95117188 C-4.89840492 7.96291435 -2.94919262 7.98084854 -1 8 C-1.020625 7.05125 -1.04125 6.1025 -1.0625 5.125 C-1 2 -1 2 0 0 Z " fill="#FAF9F9" transform="translate(226,142)"/>
<path d="M0 0 C18.81 0 37.62 0 57 0 C57 6.27 57 12.54 57 19 C47.76 19 38.52 19 29 19 C29 20.65 29 22.3 29 24 C38.24 24 47.48 24 57 24 C57 24.33 57 24.66 57 25 C47.76 25 38.52 25 29 25 C29 26.32 29 27.64 29 29 C27.68 29 26.36 29 25 29 C25 27.68 25 26.36 25 25 C18.4 25 11.8 25 5 25 C5 24.67 5 24.34 5 24 C11.6 24 18.2 24 25 24 C25 22.35 25 20.7 25 19 C16.09 19 7.18 19 -2 19 C-1.34 12.73 -0.68 6.46 0 0 Z " fill="#521D32" transform="translate(143,185)"/>
<path d="M0 0 C1.43472656 0.00676758 1.43472656 0.00676758 2.8984375 0.01367188 C5.22402758 0.02529983 7.5494776 0.04163898 9.875 0.0625 C9.875 2.0425 9.875 4.0225 9.875 6.0625 C11.195 6.0625 12.515 6.0625 13.875 6.0625 C13.875 6.7225 13.875 7.3825 13.875 8.0625 C15.195 8.7225 16.515 9.3825 17.875 10.0625 C17.875 12.0425 17.875 14.0225 17.875 16.0625 C17.215 16.0625 16.555 16.0625 15.875 16.0625 C15.875 16.7225 15.875 17.3825 15.875 18.0625 C15.215 18.0625 14.555 18.0625 13.875 18.0625 C14.16375 18.64515625 14.4525 19.2278125 14.75 19.828125 C18.30484028 27.67839727 19.50388683 35.26157039 16.6875 43.5625 C13.96624448 47.31595589 10.69569391 49.51537072 6.875 52.0625 C6.35588016 55.01151735 6.35588016 55.01151735 6.4375 58.375 C6.40849609 60.07076172 6.40849609 60.07076172 6.37890625 61.80078125 C6.96765845 65.6717111 8.22588873 67.24440227 10.875 70.0625 C13.875 73.70535714 13.875 73.70535714 13.875 77.0625 C9.915 77.0625 5.955 77.0625 1.875 77.0625 C1.875 76.0725 1.875 75.0825 1.875 74.0625 C2.865 74.0625 3.855 74.0625 4.875 74.0625 C4.545 60.5325 4.215 47.0025 3.875 33.0625 C3.215 33.0625 2.555 33.0625 1.875 33.0625 C1.875 24.1525 1.875 15.2425 1.875 6.0625 C-23.17801489 6.49820461 -48.1384774 7.11096055 -73.125 9.0625 C-73.15078125 9.68898437 -73.1765625 10.31546875 -73.203125 10.9609375 C-73.25984375 11.77820313 -73.3165625 12.59546875 -73.375 13.4375 C-73.42140625 14.24960938 -73.4678125 15.06171875 -73.515625 15.8984375 C-74.125 18.0625 -74.125 18.0625 -76.171875 19.3515625 C-76.81640625 19.58617187 -77.4609375 19.82078125 -78.125 20.0625 C-78.17884521 17.77108714 -78.21772087 15.47931812 -78.25 13.1875 C-78.27320313 11.91132813 -78.29640625 10.63515625 -78.3203125 9.3203125 C-78.125 6.0625 -78.125 6.0625 -76.125 4.0625 C-73.54077148 3.66772461 -73.54077148 3.66772461 -70.24609375 3.46484375 C-69.02631836 3.38613037 -67.80654297 3.30741699 -66.54980469 3.22631836 C-64.57608887 3.11429077 -64.57608887 3.11429077 -62.5625 3 C-61.20602211 2.91662538 -59.84957689 2.83271749 -58.49316406 2.74829102 C-48.792695 2.15802805 -39.08639509 1.71448957 -29.37280273 1.40405273 C-24.92813993 1.2555555 -20.53798169 1.03147123 -16.1171875 0.5390625 C-10.73681584 -0.04007473 -5.40637904 -0.04935599 0 0 Z " fill="#7B283B" transform="translate(246.125,133.9375)"/>
<path d="M0 0 C0 1.32 0 2.64 0 4 C24.255 4.495 24.255 4.495 49 5 C49 10.28 49 15.56 49 21 C28.87 21 8.74 21 -12 21 C-12.6376085 15.89913203 -13.11969716 11.53334966 -13.0625 6.5 C-13.05347656 5.4584375 -13.04445312 4.416875 -13.03515625 3.34375 C-13.02355469 2.5703125 -13.01195312 1.796875 -13 1 C-11.20843648 0.83222817 -9.4167455 0.66581706 -7.625 0.5 C-6.62726563 0.4071875 -5.62953125 0.314375 -4.6015625 0.21875 C-2 0 -2 0 0 0 Z " fill="#BDB8B2" transform="translate(152,164)"/>
<path d="M0 0 C0.99 0 1.98 0 3 0 C3 0.66 3 1.32 3 2 C6.3 2 9.6 2 13 2 C13.33 1.34 13.66 0.68 14 0 C14.99 0.495 14.99 0.495 16 1 C16 1.66 16 2.32 16 3 C17.73636719 2.96519531 17.73636719 2.96519531 19.5078125 2.9296875 C21.04686851 2.91091852 22.58593155 2.89271954 24.125 2.875 C24.88554687 2.85824219 25.64609375 2.84148437 26.4296875 2.82421875 C31.03270731 2.78453754 34.66464004 3.24092423 39 5 C26.7561877 13.16254153 2.16496525 10.13018617 -12.296875 10.55859375 C-13.00376842 10.57965117 -13.71066185 10.60070858 -14.43897629 10.6224041 C-33.5598413 11.17581485 -52.6832592 11.11521242 -71.8102417 11.06866455 C-76.59223973 11.05819158 -81.37424366 11.05381718 -86.15625 11.04882812 C-95.43751465 11.03829701 -104.7187544 11.02137241 -114 11 C-114 10.67 -114 10.34 -114 10 C-85.29 9.505 -85.29 9.505 -56 9 C-56.99 8.67 -57.98 8.34 -59 8 C-59 6.02 -59 4.04 -59 2 C-54.1111519 1.85515666 -49.22223807 1.71286132 -44.33325195 1.57275391 C-42.67600588 1.52492249 -41.01877848 1.47643899 -39.36157227 1.42724609 C-11.14550075 0.59108794 -11.14550075 0.59108794 0 2 C0 1.34 0 0.68 0 0 Z " fill="#3D3B47" transform="translate(231,208)"/>
<path d="M0 0 C33.99 0 67.98 0 103 0 C103 1.65 103 3.3 103 5 C103.65597168 4.98952637 104.31194336 4.97905273 104.98779297 4.96826172 C107.95015658 4.92677497 110.91245916 4.90069738 113.875 4.875 C114.90753906 4.85824219 115.94007813 4.84148437 117.00390625 4.82421875 C117.99003906 4.81777344 118.97617188 4.81132813 119.9921875 4.8046875 C121.35899658 4.78897705 121.35899658 4.78897705 122.75341797 4.77294922 C125 5 125 5 127 7 C119.41 7 111.82 7 104 7 C103.67 35.38 103.34 63.76 103 93 C98.71 93 94.42 93 90 93 C90 92.67 90 92.34 90 92 C92.31 92 94.62 92 97 92 C97 61.97 97 31.94 97 1 C64.99 1 32.98 1 0 1 C0 0.67 0 0.34 0 0 Z " fill="#C3C288" transform="translate(37,61)"/>
<path d="M0 0 C7.92 0 15.84 0 24 0 C24.04125 2.35125 24.0825 4.7025 24.125 7.125 C24.14320801 7.85348145 24.16141602 8.58196289 24.18017578 9.33251953 C24.21883977 13.93103948 23.52569619 16.42291144 22 21 C17.71 21 13.42 21 9 21 C9 27.93 9 34.86 9 42 C6.03 42 3.06 42 0 42 C0 28.14 0 14.28 0 0 Z " fill="#94C6CB" transform="translate(55,68)"/>
<path d="M0 0 C0 19.14 0 38.28 0 58 C-6.6 58 -13.2 58 -20 58 C-20 55.36 -20 52.72 -20 50 C-19.34 50 -18.68 50 -18 50 C-18.04640625 49.2884375 -18.0928125 48.576875 -18.140625 47.84375 C-17.9785967 44.56717768 -17.10817943 42.47817659 -15.75 39.5 C-12.33536123 31.61563744 -9.92289079 23.54894888 -7.74609375 15.24609375 C-7.4202832 14.02140381 -7.4202832 14.02140381 -7.08789062 12.77197266 C-6.66054305 11.15594434 -6.24354105 9.53713802 -5.83789062 7.91552734 C-3.74641054 0 -3.74641054 0 0 0 Z " fill="#6EBDBE" transform="translate(104,104)"/>
<path d="M0 0 C0.33 0 0.66 0 1 0 C1 3.3 1 6.6 1 10 C-0.32 10.33 -1.64 10.66 -3 11 C-3.17015625 11.72703125 -3.3403125 12.4540625 -3.515625 13.203125 C-5.7441978 22.44933129 -8.47178776 31.40077764 -12.125 40.1875 C-13.6946765 44.00217893 -14.63758839 47.67176286 -15.4375 51.70703125 C-16.48397862 55.97288508 -18.31391309 59.95477913 -20 64 C-21.78850171 68.70658345 -22.48463997 73.01818635 -23 78 C-23.33 78 -23.66 78 -24 78 C-24 62.49 -24 46.98 -24 31 C-23.34 31 -22.68 31 -22 31 C-22 29.68 -22 28.36 -22 27 C-19.36 27 -16.72 27 -14 27 C-14 20.07 -14 13.14 -14 6 C-9.71 6 -5.42 6 -1 6 C-0.67 4.02 -0.34 2.04 0 0 Z " fill="#8DCACD" transform="translate(78,83)"/>
<path d="M0 0 C0.77722412 -0.0007251 1.55444824 -0.0014502 2.35522461 -0.00219727 C7.2242609 0.04539683 11.92871111 0.50575666 16.75 1.1875 C16.75 1.5175 16.75 1.8475 16.75 2.1875 C14.77 2.1875 12.79 2.1875 10.75 2.1875 C10.42 4.8275 10.09 7.4675 9.75 10.1875 C8.03103516 10.24357422 8.03103516 10.24357422 6.27734375 10.30078125 C4.74736554 10.36648584 3.21741903 10.43293159 1.6875 10.5 C0.93533203 10.52255859 0.18316406 10.54511719 -0.59179688 10.56835938 C-5.80065735 10.81640035 -9.64884785 11.67305127 -14.25 14.1875 C-15.94379568 15.97205407 -15.94379568 15.97205407 -16.9375 18.0625 C-18.78630484 21.38055372 -20.79093943 24.27305784 -23.25 27.1875 C-22.83054965 24.67079792 -22.42555668 22.52764107 -21.25 20.25 C-19.8705129 17.65209959 -19.8705129 17.65209959 -19.25 12.1875 C-27.17 12.1875 -35.09 12.1875 -43.25 12.1875 C-42.92 9.2175 -42.59 6.2475 -42.25 3.1875 C-37.11647171 1.4763239 -31.68776773 1.50377279 -26.3125 1.125 C-25.05663086 1.03629639 -23.80076172 0.94759277 -22.50683594 0.85620117 C-15.00157971 0.35734938 -7.52241738 0.0007273 0 0 Z " fill="#581F37" transform="translate(215.25,139.8125)"/>
<path d="M0 0 C36.96 0 73.92 0 112 0 C112 1.65 112 3.3 112 5 C99.79 5 87.58 5 75 5 C75 3.68 75 2.36 75 1 C74.01 1 73.02 1 72 1 C72 2.32 72 3.64 72 5 C48.24 5 24.48 5 0 5 C0 3.35 0 1.7 0 0 Z " fill="#694544" transform="translate(56,204)"/>
<path d="M0 0 C1.07878418 0.01047363 2.15756836 0.02094727 3.26904297 0.03173828 C5.01894531 0.04140625 5.01894531 0.04140625 6.80419922 0.05126953 C8.02751953 0.06802734 9.25083984 0.08478516 10.51123047 0.10205078 C11.74228516 0.11107422 12.97333984 0.12009766 14.24169922 0.12939453 C17.29006862 0.1530253 20.33805429 0.18597024 23.38623047 0.22705078 C23.54546588 5.2048881 22.72580379 7.82865294 20.38623047 12.22705078 C20.05623047 13.87705078 19.72623047 15.52705078 19.38623047 17.22705078 C7.83623047 17.22705078 -3.71376953 17.22705078 -15.61376953 17.22705078 C-15.28376953 16.56705078 -14.95376953 15.90705078 -14.61376953 15.22705078 C-13.62376953 15.22705078 -12.63376953 15.22705078 -11.61376953 15.22705078 C-11.28376953 12.91705078 -10.95376953 10.60705078 -10.61376953 8.22705078 C-9.95376953 8.22705078 -9.29376953 8.22705078 -8.61376953 8.22705078 C-8.61376953 7.56705078 -8.61376953 6.90705078 -8.61376953 6.22705078 C-7.95376953 6.22705078 -7.29376953 6.22705078 -6.61376953 6.22705078 C-6.18064453 5.29892578 -6.18064453 5.29892578 -5.73876953 4.35205078 C-4.16481819 1.37903157 -3.43081849 0.29802552 0 0 Z " fill="#F9F6F5" transform="translate(172.61376953125,151.77294921875)"/>
<path d="M0 0 C1.54953369 -0.00374634 1.54953369 -0.00374634 3.13037109 -0.00756836 C28.91795521 -0.05885632 28.91795521 -0.05885632 34.5 1.125 C34.995 2.115 34.995 2.115 35.5 3.125 C14.84672319 4.45135723 -5.81530211 4.22378805 -26.5 4.125 C-27.16 9.075 -27.82 14.025 -28.5 19.125 C-28.83 19.125 -29.16 19.125 -29.5 19.125 C-29.83 25.395 -30.16 31.665 -30.5 38.125 C-29.84 38.125 -29.18 38.125 -28.5 38.125 C-26.5 41.125 -26.5 41.125 -26.5 44.125 C-29.14 44.125 -31.78 44.125 -34.5 44.125 C-34.5 31.585 -34.5 19.045 -34.5 6.125 C-35.16 6.125 -35.82 6.125 -36.5 6.125 C-36.5 4.805 -36.5 3.485 -36.5 2.125 C-44.75 2.125 -53 2.125 -61.5 2.125 C-61.5 1.795 -61.5 1.465 -61.5 1.125 C-40.99974697 0.3849755 -20.51395772 0.01733929 0 0 Z " fill="#684D4A" transform="translate(80.5,165.875)"/>
<path d="M0 0 C1.32 0 2.64 0 4 0 C4 0.66 4 1.32 4 2 C5.32 2.66 6.64 3.32 8 4 C8 5.98 8 7.96 8 10 C7.34 10 6.68 10 6 10 C6 10.66 6 11.32 6 12 C5.34 12 4.68 12 4 12 C4.28875 12.58265625 4.5775 13.1653125 4.875 13.765625 C8.42984028 21.61589727 9.62888683 29.19907039 6.8125 37.5 C3.85987348 41.5725883 0.46345764 43.83934534 -4 46 C-4.40726687 30.92486025 -4.25685488 15.80611618 -1 1 C-0.67 0.67 -0.34 0.34 0 0 Z " fill="#F59F40" transform="translate(256,140)"/>
<path d="M0 0 C1.32 0 2.64 0 4 0 C4.07413521 5.07198888 4.12859451 10.14366268 4.16479492 15.21606445 C4.17988516 16.94170627 4.20035975 18.66730972 4.22631836 20.39282227 C4.26269209 22.87265488 4.27972359 25.35198064 4.29296875 27.83203125 C4.30845261 28.60400345 4.32393646 29.37597565 4.33988953 30.17134094 C4.34158521 35.56327832 4.34158521 35.56327832 2.52734375 37.8828125 C2.02332031 38.25148437 1.51929687 38.62015625 1 39 C0.22186348 41.03341887 0.22186348 41.03341887 -0.1875 43.1875 C-0.455625 44.445625 -0.72375 45.70375 -1 47 C-2.65 47 -4.3 47 -6 47 C-6.8227637 16.56407208 -6.8227637 16.56407208 -2 5 C-1.62617187 4.06027344 -1.25234375 3.12054688 -0.8671875 2.15234375 C-0.58101563 1.44207031 -0.29484375 0.73179688 0 0 Z " fill="#F7FBFB" transform="translate(99,69)"/>
<path d="M0 0 C0.33 0 0.66 0 1 0 C1 7.26 1 14.52 1 22 C3.97 22 6.94 22 10 22 C10 22.66 10 23.32 10 24 C6.7 24 3.4 24 0 24 C0 23.34 0 22.68 0 22 C-0.99 22 -1.98 22 -3 22 C-3 22.66 -3 23.32 -3 24 C-22.69021726 24.16771906 -42.32487154 23.69022656 -62 23 C-62 21.35 -62 19.7 -62 18 C-52.43 18 -42.86 18 -33 18 C-32.67 18.66 -32.34 19.32 -32 20 C-31.175 19.67 -30.35 19.34 -29.5 19 C-25.4126017 17.83217191 -22.23076656 17.8541115 -18 18 C-18 17.34 -18 16.68 -18 16 C-17.34 16 -16.68 16 -16 16 C-15.505 16.99 -15.505 16.99 -15 18 C-10.71 18 -6.42 18 -2 18 C-1.90912109 16.42798828 -1.90912109 16.42798828 -1.81640625 14.82421875 C-1.73198262 13.44529952 -1.64733553 12.06639395 -1.5625 10.6875 C-1.52318359 9.99720703 -1.48386719 9.30691406 -1.44335938 8.59570312 C-1.25072585 5.52838465 -0.97677283 2.93031848 0 0 Z " fill="#925046" transform="translate(234,186)"/>
<path d="M0 0 C0 2.64 0 5.28 0 8 C-5.6670141 9.61134389 -10.65325011 10.28356784 -16.52734375 10.22705078 C-17.33805832 10.22734283 -18.14877289 10.22763489 -18.98405457 10.22793579 C-21.63531601 10.22655431 -24.2862883 10.21104944 -26.9375 10.1953125 C-28.78694505 10.19157816 -30.6363921 10.18873318 -32.48583984 10.18673706 C-37.3322708 10.17913377 -42.17858016 10.15951392 -47.02496338 10.1373291 C-51.97886511 10.11679922 -56.93278666 10.10772012 -61.88671875 10.09765625 C-71.59119899 10.07626469 -81.29558935 10.04216898 -91 10 C-91 9.67 -91 9.34 -91 9 C-62.29 8.505 -62.29 8.505 -33 8 C-33.99 7.67 -34.98 7.34 -36 7 C-36 5.02 -36 3.04 -36 1 C-31.50008666 0.83093851 -27.00005734 0.66518068 -22.5 0.5 C-21.2315625 0.45230469 -19.963125 0.40460938 -18.65625 0.35546875 C-12.43313793 0.12858446 -6.22729901 -0.06290201 0 0 Z " fill="#424450" transform="translate(208,209)"/>
<path d="M0 0 C4.95 0 9.9 0 15 0 C11.05582104 13.80462637 6.60667554 27.40318167 2 41 C1.34 41 0.68 41 0 41 C0 27.47 0 13.94 0 0 Z " fill="#F9FBF9" transform="translate(55,69)"/>
<path d="M0 0 C6.93 0.33 13.86 0.66 21 1 C21 1.33 21 1.66 21 2 C15.06 2 9.12 2 3 2 C3 32.69 3 63.38 3 95 C9.27 95 15.54 95 22 95 C22 95.33 22 95.66 22 96 C11.11 96.495 11.11 96.495 0 97 C0 64.99 0 32.98 0 0 Z " fill="#6B5150" transform="translate(81,67)"/>
<path d="M0 0 C9.24 0 18.48 0 28 0 C28 3.96 28 7.92 28 12 C23.05 12 18.1 12 13 12 C13.33 10.68 13.66 9.36 14 8 C13.34 8 12.68 8 12 8 C12 8.99 12 9.98 12 11 C8.04 11 4.08 11 0 11 C0 7.37 0 3.74 0 0 Z " fill="#581D34" transform="translate(204,169)"/>
<path d="M0 0 C9.24 0 18.48 0 28 0 C28 3.63 28 7.26 28 11 C18.76 11 9.52 11 0 11 C0 7.37 0 3.74 0 0 Z " fill="#571E34" transform="translate(204,182)"/>
<path d="M0 0 C0 19.14 0 38.28 0 58 C-4.29 58 -8.58 58 -13 58 C-10.1112224 44.79415954 -10.1112224 44.79415954 -7.75390625 38.96875 C-6.55464941 35.83701194 -5.66754608 32.61701145 -4.74609375 29.39453125 C-4 27 -4 27 -2.94921875 24.84375 C-1.50758343 20.5247767 -1.52852823 16.21338417 -1.375 11.6875 C-1.33632812 10.75615234 -1.29765625 9.82480469 -1.2578125 8.86523438 C-1.16393687 6.57701593 -1.07825491 4.28879705 -1 2 C-1.66 1.67 -2.32 1.34 -3 1 C-1 0 -1 0 0 0 Z " fill="#93CACD" transform="translate(104,104)"/>
<path d="M0 0 C9.24 0 18.48 0 28 0 C28 3.63 28 7.26 28 11 C23.71 11 19.42 11 15 11 C14.67 10.01 14.34 9.02 14 8 C13.34 8 12.68 8 12 8 C12 8.66 12 9.32 12 10 C6.06 10.495 6.06 10.495 0 11 C0 7.37 0 3.74 0 0 Z " fill="#551D35" transform="translate(204,194)"/>
<path d="M0 0 C1.18613892 0.00785522 1.18613892 0.00785522 2.39624023 0.01586914 C3.67724609 0.02070313 3.67724609 0.02070313 4.98413086 0.02563477 C5.88196289 0.03401367 6.77979492 0.04239258 7.70483398 0.05102539 C8.6065332 0.05553711 9.50823242 0.06004883 10.43725586 0.06469727 C12.67234712 0.07652315 14.90730835 0.09300319 17.14233398 0.11352539 C17.14233398 2.42352539 17.14233398 4.73352539 17.14233398 7.11352539 C19.12233398 7.11352539 21.10233398 7.11352539 23.14233398 7.11352539 C23.14233398 8.43352539 23.14233398 9.75352539 23.14233398 11.11352539 C19.51233398 11.11352539 15.88233398 11.11352539 12.14233398 11.11352539 C12.14233398 13.42352539 12.14233398 15.73352539 12.14233398 18.11352539 C11.81233398 17.12352539 11.48233398 16.13352539 11.14233398 15.11352539 C9.16233398 15.11352539 7.18233398 15.11352539 5.14233398 15.11352539 C5.14233398 14.78352539 5.14233398 14.45352539 5.14233398 14.11352539 C6.79233398 14.11352539 8.44233398 14.11352539 10.14233398 14.11352539 C10.14233398 13.12352539 10.14233398 12.13352539 10.14233398 11.11352539 C9.48233398 11.11352539 8.82233398 11.11352539 8.14233398 11.11352539 C7.81233398 11.77352539 7.48233398 12.43352539 7.14233398 13.11352539 C6.81233398 12.12352539 6.48233398 11.13352539 6.14233398 10.11352539 C5.15233398 11.59852539 5.15233398 11.59852539 4.14233398 13.11352539 C3.81233398 12.78352539 3.48233398 12.45352539 3.14233398 12.11352539 C0.81415435 11.74591808 -1.51950451 11.41110958 -3.85766602 11.11352539 C-4.18766602 10.12352539 -4.51766602 9.13352539 -4.85766602 8.11352539 C-3.86766602 8.11352539 -2.87766602 8.11352539 -1.85766602 8.11352539 C-2.13610352 6.41196289 -2.13610352 6.41196289 -2.42016602 4.67602539 C-2.56454102 3.50040039 -2.70891602 2.32477539 -2.85766602 1.11352539 C-1.85766602 0.11352539 -1.85766602 0.11352539 0 0 Z " fill="#C4BFA9" transform="translate(126.857666015625,153.886474609375)"/>
<path d="M0 0 C0.33 0 0.66 0 1 0 C1.33 31.35 1.66 62.7 2 95 C3.485 94.505 3.485 94.505 5 94 C6.48123547 93.9193378 7.96582204 93.89238807 9.44921875 93.90234375 C10.29677734 93.90556641 11.14433594 93.90878906 12.01757812 93.91210938 C12.89865234 93.92048828 13.77972656 93.92886719 14.6875 93.9375 C16.02651367 93.94426758 16.02651367 93.94426758 17.39257812 93.95117188 C19.59511987 93.96295017 21.79752599 93.97939836 24 94 C24 94.99 24 95.98 24 97 C8.16 97 -7.68 97 -24 97 C-24 95.68 -24 94.36 -24 93 C-16.08 93 -8.16 93 0 93 C0 62.31 0 31.62 0 0 Z " fill="#314856" transform="translate(79,69)"/>
<path d="M0 0 C4.32775243 -0.48861721 6.76457911 -0.69304099 10.5625 1.4375 C12.74411826 5.32647169 11.83591691 8.74772703 11 13 C9.35 13 7.7 13 6 13 C6 17.95 6 22.9 6 28 C4.02 28 2.04 28 0 28 C-0.06058594 27.03578125 -0.12117187 26.0715625 -0.18359375 25.078125 C-0.26738281 23.81484375 -0.35117188 22.5515625 -0.4375 21.25 C-0.51871094 19.99703125 -0.59992188 18.7440625 -0.68359375 17.453125 C-0.92707531 14.79586944 -1.31335116 12.54960595 -2 10 C-2.34146341 3.51219512 -2.34146341 3.51219512 0 0 Z " fill="#F9E55F" transform="translate(208,91)"/>
<path d="M0 0 C4.95 0 9.9 0 15 0 C14 5 14 5 13.0625 7.56640625 C8.5650546 20.2485409 9.16046374 33.69534264 9 47 C8.67 47 8.34 47 8 47 C8 38.09 8 29.18 8 20 C5.69 20 3.38 20 1 20 C0.67 13.4 0.34 6.8 0 0 Z " fill="#98CFD3" transform="translate(84,69)"/>
<path d="M0 0 C-0.50219727 1.93457031 -0.50219727 1.93457031 -2 4 C-4.75791287 4.57743982 -7.17587038 4.88348596 -9.96484375 5.046875 C-11.1485128 5.13826752 -11.1485128 5.13826752 -12.35609436 5.23150635 C-14.88228586 5.42220471 -17.40943301 5.5862483 -19.9375 5.75 C-21.63749662 5.87458336 -23.3373697 6.00086498 -25.03710938 6.12890625 C-36.83614562 7 -36.83614562 7 -41 7 C-41.02578125 7.62648437 -41.0515625 8.25296875 -41.078125 8.8984375 C-41.13484375 9.71570313 -41.1915625 10.53296875 -41.25 11.375 C-41.29640625 12.18710938 -41.3428125 12.99921875 -41.390625 13.8359375 C-42 16 -42 16 -44.046875 17.2890625 C-44.69140625 17.52367187 -45.3359375 17.75828125 -46 18 C-46.05384521 15.70858714 -46.09272087 13.41681812 -46.125 11.125 C-46.14820313 9.84882813 -46.17140625 8.57265625 -46.1953125 7.2578125 C-46 4 -46 4 -44 2 C-41.24121094 1.58935547 -41.24121094 1.58935547 -37.734375 1.3671875 C-36.45046875 1.28339844 -35.1665625 1.19960937 -33.84375 1.11328125 C-33.16957031 1.07412598 -32.49539062 1.0349707 -31.80078125 0.99462891 C-29.79884942 0.87784955 -27.79782953 0.74575551 -25.796875 0.61328125 C-17.1798303 0.07471596 -8.63166167 -0.10583781 0 0 Z " fill="#822843" transform="translate(214,136)"/>
<path d="M0 0 C2.64 0 5.28 0 8 0 C8 0.66 8 1.32 8 2 C7.34 2 6.68 2 6 2 C5.59201172 3.92779297 5.59201172 3.92779297 5.17578125 5.89453125 C4.06241876 10.89635379 2.67536628 15.78570053 1.1875 20.6875 C0.92614258 21.55093018 0.66478516 22.41436035 0.39550781 23.30395508 C-4.49616545 39.29379735 -4.49616545 39.29379735 -7 45 C-7.99 45.495 -7.99 45.495 -9 46 C-9.02908357 42.58335127 -9.04682691 39.1667345 -9.0625 35.75 C-9.07087891 34.78191406 -9.07925781 33.81382813 -9.08789062 32.81640625 C-9.09111328 31.88183594 -9.09433594 30.94726562 -9.09765625 29.984375 C-9.10289307 29.12553711 -9.10812988 28.26669922 -9.11352539 27.38183594 C-9.00539986 25.11329256 -8.63582423 23.17368285 -8 21 C-5.36 21 -2.72 21 0 21 C0 14.07 0 7.14 0 0 Z " fill="#6EBFC0" transform="translate(64,89)"/>
<path d="M0 0 C1.32 0 2.64 0 4 0 C4.02477487 5.03539677 4.04289549 10.07075781 4.05493164 15.10620117 C4.05995099 16.81812152 4.06676785 18.53003761 4.07543945 20.24194336 C4.08761021 22.70687922 4.09325238 25.17175825 4.09765625 27.63671875 C4.10281754 28.39836838 4.10797882 29.16001801 4.11329651 29.94474792 C4.11369638 33.75849825 3.92590961 37.29315771 3 41 C1.68 41 0.36 41 -1 41 C-0.814375 40.443125 -0.62875 39.88625 -0.4375 39.3125 C0.08006206 36.57681481 -0.39247745 34.70010024 -1 32 C-1 30.68 -1 29.36 -1 28 C0.32 28 1.64 28 3 28 C3 27.01 3 26.02 3 25 C1.35 25 -0.3 25 -2 25 C-2 24.01 -2 23.02 -2 22 C-0.35 22 1.3 22 3 22 C3 21.01 3 20.02 3 19 C1.35 19 -0.3 19 -2 19 C-2 18.34 -2 17.68 -2 17 C-2.99 17.33 -3.98 17.66 -5 18 C-4.35852041 15.18644068 -3.71204485 12.37419761 -3.0625 9.5625 C-2.88009766 8.76005859 -2.69769531 7.95761719 -2.50976562 7.13085938 C-1.11328125 1.11328125 -1.11328125 1.11328125 0 0 Z " fill="#64B1B4" transform="translate(75,93)"/>
<path d="M0 0 C13.2 0 26.4 0 40 0 C40 1.65 40 3.3 40 5 C27.79 5 15.58 5 3 5 C3 3.68 3 2.36 3 1 C2.01 0.67 1.02 0.34 0 0 Z " fill="#605357" transform="translate(128,204)"/>
<path d="M0 0 C2.31 0 4.62 0 7 0 C8.11564125 2.60316291 8.99190778 4.95549279 9.5 7.75 C9.665 8.4925 9.83 9.235 10 10 C10.66 10.33 11.32 10.66 12 11 C11.68991116 12.60463449 11.37683713 14.20869231 11.0625 15.8125 C10.88847656 16.70582031 10.71445313 17.59914062 10.53515625 18.51953125 C10 21 10 21 9 24 C8.01 24 7.02 24 6 24 C4.73762269 21.47524538 4.90143596 19.68799534 4.9375 16.875 C4.94652344 15.96492187 4.95554688 15.05484375 4.96484375 14.1171875 C4.97644531 13.41851562 4.98804688 12.71984375 5 12 C2.69 12 0.38 12 -2 12 C-1.85904936 10.3745692 -1.71207913 8.74965949 -1.5625 7.125 C-1.48128906 6.22007812 -1.40007812 5.31515625 -1.31640625 4.3828125 C-1 2 -1 2 0 0 Z " fill="#EF9E7D" transform="translate(226,142)"/>
<path d="M0 0 C0.33 0 0.66 0 1 0 C1 10.89 1 21.78 1 33 C-2.63 33 -6.26 33 -10 33 C-6.1627907 20.09302326 -6.1627907 20.09302326 -4.0234375 14.40234375 C-2.23188897 9.6141403 -0.55360314 5.12082901 0 0 Z " fill="#91CED6" transform="translate(78,129)"/>
<path d="M0 0 C0.33 0.99 0.66 1.98 1 3 C1.99 3 2.98 3 4 3 C4.91299547 9.64795961 4.98938155 15.87468898 4.5625 22.5625 C4.51029297 23.47580078 4.45808594 24.38910156 4.40429688 25.33007812 C4.27622505 27.55387081 4.14136041 29.77701936 4 32 C4.66 32 5.32 32 6 32 C8 35 8 35 8 38 C5.36 38 2.72 38 0 38 C0 25.46 0 12.92 0 0 Z " fill="#6B4741" transform="translate(46,172)"/>
<path d="M0 0 C0.33 0 0.66 0 1 0 C1 16.83 1 33.66 1 51 C1.99 51.33 2.98 51.66 4 52 C3.01 52.495 3.01 52.495 2 53 C2 53.66 2 54.32 2 55 C3.7015625 54.9690625 3.7015625 54.9690625 5.4375 54.9375 C9 55 9 55 10 56 C10.66 55.01 11.32 54.02 12 53 C13.33333333 53.66666667 14.66666667 54.33333333 16 55 C16 55.99 16 56.98 16 58 C11.61040324 59.07799528 7.30699277 59.18343259 2.8125 59.1875 C1.72678711 59.20586914 1.72678711 59.20586914 0.61914062 59.22460938 C-1.25539471 59.22984064 -3.1294635 59.12248796 -5 59 C-5.66 58.34 -6.32 57.68 -7 57 C-6.625 54.375 -6.625 54.375 -6 52 C-3.03 51.505 -3.03 51.505 0 51 C0 34.17 0 17.34 0 0 Z " fill="#CAC9B9" transform="translate(121,110)"/>
<path d="M0 0 C0.66 0 1.32 0 2 0 C2.33 3.96 2.66 7.92 3 12 C3.99 12 4.98 12 6 12 C6.66 8.37 7.32 4.74 8 1 C8.99 1 9.98 1 11 1 C12.3271261 4.9813783 12.06915913 8.85045227 12 13 C9.03 13 6.06 13 3 13 C3 13.66 3 14.32 3 15 C1.35 15 -0.3 15 -2 15 C-2 14.67 -2 14.34 -2 14 C-14.87 13.505 -14.87 13.505 -28 13 C-28 12.67 -28 12.34 -28 12 C-19.09 12 -10.18 12 -1 12 C-1 9.36 -1 6.72 -1 4 C-0.5 1.5 -0.5 1.5 0 0 Z " fill="#873D55" transform="translate(229,154)"/>
<path d="M0 0 C0.33 0 0.66 0 1 0 C1 5.61 1 11.22 1 17 C3.31 17 5.62 17 8 17 C7.15957532 21.38221443 6.16675489 25.72450541 5.125 30.0625 C4.96386719 30.76955078 4.80273438 31.47660156 4.63671875 32.20507812 C3.62579967 36.37805806 2.65317332 38.46243558 0 42 C0 28.14 0 14.28 0 0 Z " fill="#71BEC0" transform="translate(84,72)"/>
<path d="M0 0 C16.01552 -0.19531122 31.99856404 0.40489219 48 1 C48 1.33 48 1.66 48 2 C34.8 2 21.6 2 8 2 C7.34 6.95 6.68 11.9 6 17 C5.67 17 5.34 17 5 17 C4.67 13.7 4.34 10.4 4 7 C3.01 7 2.02 7 1 7 C1 6.01 1 5.02 1 4 C0.34 3.67 -0.32 3.34 -1 3 C-0.67 2.01 -0.34 1.02 0 0 Z " fill="#815D57" transform="translate(46,168)"/>
<path d="M0 0 C5.51754805 -0.07402793 11.03480856 -0.12854366 16.55273438 -0.16479492 C18.43071526 -0.17990325 20.30866076 -0.20039094 22.18652344 -0.22631836 C24.88225019 -0.26261246 27.57751146 -0.27970545 30.2734375 -0.29296875 C31.11619232 -0.30845261 31.95894714 -0.32393646 32.82723999 -0.33988953 C35.19287109 -0.34057617 35.19287109 -0.34057617 39 0 C39.66 0.99 40.32 1.98 41 3 C27.47 3 13.94 3 0 3 C0 2.01 0 1.02 0 0 Z " fill="#3A2F3B" transform="translate(37,64)"/>
<path d="M0 0 C2.64 0 5.28 0 8 0 C7.36124333 4.67225381 6.14245582 8.87268349 4.5625 13.3125 C4.13066406 14.54613281 3.69882812 15.77976563 3.25390625 17.05078125 C2 20 2 20 0 21 C0 14.07 0 7.14 0 0 Z " fill="#57A9AC" transform="translate(55,114)"/>
<path d="M0 0 C0.33 0 0.66 0 1 0 C1 7.26 1 14.52 1 22 C3.97 22 6.94 22 10 22 C10 22.66 10 23.32 10 24 C6.7 24 3.4 24 0 24 C0 23.34 0 22.68 0 22 C-0.99 22 -1.98 22 -3 22 C-3 22.66 -3 23.32 -3 24 C-5.97 24 -8.94 24 -12 24 C-12 23.34 -12 22.68 -12 22 C-8.3558226 19.5705484 -6.28758728 19.83820425 -2 20 C-1.93941406 18.80761719 -1.87882813 17.61523438 -1.81640625 16.38671875 C-1.73198851 14.82030075 -1.64734113 13.25389512 -1.5625 11.6875 C-1.52318359 10.90181641 -1.48386719 10.11613281 -1.44335938 9.30664062 C-1.40146484 8.54931641 -1.35957031 7.79199219 -1.31640625 7.01171875 C-1.26141968 5.96697388 -1.26141968 5.96697388 -1.20532227 4.90112305 C-1 3 -1 3 0 0 Z " fill="#9E4B46" transform="translate(234,186)"/>
<path d="M0 0 C0 0.66 0 1.32 0 2 C6.93 2 13.86 2 21 2 C21 2.33 21 2.66 21 3 C16.32267637 3.02492221 11.64539233 3.04296415 6.96801758 3.05493164 C5.38044561 3.05992654 3.79287817 3.06672475 2.20532227 3.07543945 C-14.02895258 3.16225376 -14.02895258 3.16225376 -22 2 C-22.33 3.32 -22.66 4.64 -23 6 C-23.33 4.68 -23.66 3.36 -24 2 C-32.25 2 -40.5 2 -49 2 C-49 1.67 -49 1.34 -49 1 C-44.1111519 0.85515666 -39.22223807 0.71286132 -34.33325195 0.57275391 C-32.67600588 0.52492249 -31.01877848 0.47643899 -29.36157227 0.42724609 C-19.5706544 0.13710096 -9.79617706 -0.07890421 0 0 Z " fill="#5C463D" transform="translate(68,166)"/>
<path d="M0 0 C0.66 0 1.32 0 2 0 C2 6.6 2 13.2 2 20 C-0.31 20 -2.62 20 -5 20 C-4.67 16.7 -4.34 13.4 -4 10 C-3.34 10 -2.68 10 -2 10 C-1.34 6.7 -0.68 3.4 0 0 Z " fill="#72BCBC" transform="translate(101,142)"/>
<path d="M0 0 C0.33 0 0.66 0 1 0 C1.02578125 0.66386719 1.0515625 1.32773438 1.078125 2.01171875 C1.43781402 7.61142284 1.88517572 10.88517572 6 15 C9 18.64285714 9 18.64285714 9 22 C5.04 22 1.08 22 -3 22 C-3 21.01 -3 20.02 -3 19 C-2.01 19 -1.02 19 0 19 C0 12.73 0 6.46 0 0 Z " fill="#DD9A5E" transform="translate(251,189)"/>
<path d="M0 0 C1.98 0 3.96 0 6 0 C6 4.95 6 9.9 6 15 C4.02 15 2.04 15 0 15 C0 10.05 0 5.1 0 0 Z " fill="#E7E2C5" transform="translate(208,104)"/>
<path d="M0 0 C3.3 0 6.6 0 10 0 C10 1.98 10 3.96 10 6 C14.95 6 19.9 6 25 6 C25 6.33 25 6.66 25 7 C16.75 7 8.5 7 0 7 C0 4.69 0 2.38 0 0 Z " fill="#252836" transform="translate(208,210)"/>
<path d="M0 0 C-0.66 1.32 -1.32 2.64 -2 4 C-7.94 4 -13.88 4 -20 4 C-20 3.34 -20 2.68 -20 2 C-24.62 2 -29.24 2 -34 2 C-34 1.67 -34 1.34 -34 1 C-22.65384417 0.36077995 -11.36783648 -0.16938829 0 0 Z " fill="#912F38" transform="translate(214,136)"/>
<path d="M0 0 C0.33 0 0.66 0 1 0 C1 6.6 1 13.2 1 20 C-1.31 20 -3.62 20 -6 20 C-4.63125844 13.04223041 -2.5466871 6.61396893 0 0 Z " fill="#92CED3" transform="translate(63,90)"/>
<path d="M0 0 C8.91 0 17.82 0 27 0 C27 0.99 27 1.98 27 3 C18.09 3 9.18 3 0 3 C0 2.01 0 1.02 0 0 Z " fill="#F8A244" transform="translate(173,205)"/>
<path d="M0 0 C0.99 0 1.98 0 3 0 C3 0.66 3 1.32 3 2 C6.3 2 9.6 2 13 2 C13.33 1.34 13.66 0.68 14 0 C14.66 0.33 15.32 0.66 16 1 C16 1.66 16 2.32 16 3 C17.73636719 2.96519531 17.73636719 2.96519531 19.5078125 2.9296875 C21.04686851 2.91091852 22.58593155 2.89271954 24.125 2.875 C24.88554687 2.85824219 25.64609375 2.84148437 26.4296875 2.82421875 C31.03270731 2.78453754 34.66464004 3.24092423 39 5 C36 7 36 7 33 7 C32.505 6.01 32.505 6.01 32 5 C29.45058627 4.68758629 26.99638487 4.48696579 24.4375 4.375 C23.37112305 4.31699219 23.37112305 4.31699219 22.28320312 4.2578125 C20.52257575 4.16328217 18.76132272 4.08054183 17 4 C17 4.99 17 5.98 17 7 C15.68 7 14.36 7 13 7 C13 5.68 13 4.36 13 3 C8.38 3.33 3.76 3.66 -1 4 C-0.67 2.68 -0.34 1.36 0 0 Z " fill="#502928" transform="translate(231,208)"/>
<path d="M0 0 C8.25 0 16.5 0 25 0 C25 0.99 25 1.98 25 3 C16.75 3 8.5 3 0 3 C0 2.01 0 1.02 0 0 Z " fill="#272C3C" transform="translate(55,163)"/>
<path d="M0 0 C4.95 0 9.9 0 15 0 C15 1.32 15 2.64 15 4 C6.42 4 -2.16 4 -11 4 C-11 3.67 -11 3.34 -11 3 C-7.37 3 -3.74 3 0 3 C0 2.01 0 1.02 0 0 Z " fill="#2E2F3E" transform="translate(248,212)"/>
<path d="M0 0 C0.33 0.66 0.66 1.32 1 2 C2.98 1.67 4.96 1.34 7 1 C9.60334924 3.71182212 9.99456691 4.89133813 10.1875 8.75 C10.0946875 10.35875 10.0946875 10.35875 10 12 C9.67 11.01 9.34 10.02 9 9 C7.02 9 5.04 9 3 9 C3 8.67 3 8.34 3 8 C4.65 8 6.3 8 8 8 C8 7.01 8 6.02 8 5 C7.34 5 6.68 5 6 5 C5.67 5.66 5.34 6.32 5 7 C4.67 6.01 4.34 5.02 4 4 C3.01 5.485 3.01 5.485 2 7 C1.67 6.67 1.34 6.34 1 6 C-1.32817964 5.63239269 -3.6618385 5.29758419 -6 5 C-6.33 4.01 -6.66 3.02 -7 2 C-4.69 1.34 -2.38 0.68 0 0 Z " fill="#E2DFC1" transform="translate(129,160)"/>
<path d="M0 0 C2.4377963 -0.05397335 4.87439685 -0.09365616 7.3125 -0.125 C8.00279297 -0.14175781 8.69308594 -0.15851563 9.40429688 -0.17578125 C13.17135396 -0.21217794 14.78431704 -0.14378864 18 2 C18 2.66 18 3.32 18 4 C11.4 4 4.8 4 -2 4 C-1.34 2.68 -0.68 1.36 0 0 Z " fill="#812242" transform="translate(214,136)"/>
<path d="M0 0 C1.32 0 2.64 0 4 0 C4 4.95 4 9.9 4 15 C0.37 15 -3.26 15 -7 15 C-7 14.67 -7 14.34 -7 14 C-4.69 14 -2.38 14 0 14 C0 9.38 0 4.76 0 0 Z " fill="#363137" transform="translate(214,105)"/>
<path d="M0 0 C6.93 0 13.86 0 21 0 C21 0.99 21 1.98 21 3 C14.07 3 7.14 3 0 3 C0 2.01 0 1.02 0 0 Z " fill="#F5A246" transform="translate(147,205)"/>
<path d="M0 0 C2.31 0 4.62 0 7 0 C6.68950274 1.43793392 6.3765224 2.8753318 6.0625 4.3125 C5.88847656 5.11300781 5.71445313 5.91351563 5.53515625 6.73828125 C5 9 5 9 4 12 C3.01 12 2.02 12 1 12 C-0.26237731 9.47524538 -0.09856404 7.68799534 -0.0625 4.875 C-0.05347656 3.96492187 -0.04445312 3.05484375 -0.03515625 2.1171875 C-0.02355469 1.41851562 -0.01195312 0.71984375 0 0 Z " fill="#EEECEC" transform="translate(231,154)"/>
<path d="M0 0 C0.66 0 1.32 0 2 0 C2.0814222 2.22855574 2.13938079 4.45797655 2.1875 6.6875 C2.22230469 7.92886719 2.25710937 9.17023438 2.29296875 10.44921875 C1.98245941 14.21259197 1.38339252 16.09437229 -1 19 C-1.99 19 -2.98 19 -4 19 C-3.50357149 14.2342863 -2.49849752 10.3050827 -0.62109375 5.89453125 C0.20768111 3.69879759 0.20768111 3.69879759 0 0 Z " fill="#EDF9FB" transform="translate(77,69)"/>
<path d="M0 0 C0.66 0 1.32 0 2 0 C2 0.66 2 1.32 2 2 C2.928125 2.433125 2.928125 2.433125 3.875 2.875 C6 4 6 4 8 6 C-4.63055626 7.40618519 -17.31196243 7.09640239 -30 7 C-30 6.67 -30 6.34 -30 6 C-15.15 5.505 -15.15 5.505 0 5 C0 3.35 0 1.7 0 0 Z " fill="#F29F4F" transform="translate(240,128)"/>
<path d="M0 0 C0.74886475 0.00523682 1.49772949 0.01047363 2.26928711 0.01586914 C3.07817383 0.0190918 3.88706055 0.02231445 4.72045898 0.02563477 C5.5705957 0.03401367 6.42073242 0.04239258 7.29663086 0.05102539 C8.15063477 0.05553711 9.00463867 0.06004883 9.88452148 0.06469727 C12.00108749 0.07652166 14.11761771 0.0944577 16.23413086 0.11352539 C15.57413086 1.43352539 14.91413086 2.75352539 14.23413086 4.11352539 C11.26413086 4.11352539 8.29413086 4.11352539 5.23413086 4.11352539 C4.90413086 3.45352539 4.57413086 2.79352539 4.23413086 2.11352539 C2.58413086 2.11352539 0.93413086 2.11352539 -0.76586914 2.11352539 C-1.42586914 3.43352539 -2.08586914 4.75352539 -2.76586914 6.11352539 C-2.80859014 4.44740634 -2.80650746 2.77969654 -2.76586914 1.11352539 C-1.76586914 0.11352539 -1.76586914 0.11352539 0 0 Z " fill="#E6E1BC" transform="translate(126.765869140625,153.886474609375)"/>
<path d="M0 0 C0 3 0 3 -1 5 C-13.87 4.505 -13.87 4.505 -27 4 C-27 3.67 -27 3.34 -27 3 C-22.05 2.67 -17.1 2.34 -12 2 C-12 1.67 -12 1.34 -12 1 C-7.93631321 0.22596442 -4.13574827 -0.0984702 0 0 Z " fill="#2C2531" transform="translate(82,64)"/>
<path d="M0 0 C4.95 0 9.9 0 15 0 C14.67 0.66 14.34 1.32 14 2 C13.34 2 12.68 2 12 2 C12 2.66 12 3.32 12 4 C8.7 4 5.4 4 2 4 C1.34 2.68 0.68 1.36 0 0 Z " fill="#913E50" transform="translate(206,206)"/>
<path d="M0 0 C3.96 0 7.92 0 12 0 C12 1.32 12 2.64 12 4 C8.37 4 4.74 4 1 4 C0.67 2.68 0.34 1.36 0 0 Z " fill="#ECDDB1" transform="translate(138,161)"/>
<path d="M0 0 C1.32 0 2.64 0 4 0 C4 1.65 4 3.3 4 5 C8.62 5 13.24 5 18 5 C18 5.33 18 5.66 18 6 C13.38 6 8.76 6 4 6 C4 7.32 4 8.64 4 10 C2.68 10 1.36 10 0 10 C0 8.68 0 7.36 0 6 C0.66 6 1.32 6 2 6 C1.34 4.02 0.68 2.04 0 0 Z " fill="#522C36" transform="translate(52,204)"/>
<path d="M0 0 C1.53333984 0.00676758 1.53333984 0.00676758 3.09765625 0.01367188 C5.60683194 0.025397 8.1158849 0.04180824 10.625 0.0625 C10.625 0.3925 10.625 0.7225 10.625 1.0625 C3.695 1.0625 -3.235 1.0625 -10.375 1.0625 C-10.375 2.0525 -10.375 3.0425 -10.375 4.0625 C-13.015 4.0625 -15.655 4.0625 -18.375 4.0625 C-18.045 3.0725 -17.715 2.0825 -17.375 1.0625 C-11.58854356 -0.19156138 -5.88631884 -0.04936913 0 0 Z " fill="#975930" transform="translate(157.375,203.9375)"/>
<path d="M0 0 C1.33333333 0.66666667 2.66666667 1.33333333 4 2 C4 2.99 4 3.98 4 5 C-0.97063121 5.91297308 -5.02936879 5.91297308 -10 5 C-10 4.01 -10 3.02 -10 2 C-7.66705225 1.95758277 -5.33297433 1.95907063 -3 2 C-2.67 2.33 -2.34 2.66 -2 3 C-1.34 2.01 -0.68 1.02 0 0 Z " fill="#C3C0AF" transform="translate(133,163)"/>
<path d="M0 0 C0.66 0.33 1.32 0.66 2 1 C2 4.63 2 8.26 2 12 C0.35 12 -1.3 12 -3 12 C-2.69230293 10.18667846 -2.37870936 8.37435655 -2.0625 6.5625 C-1.80146484 5.04849609 -1.80146484 5.04849609 -1.53515625 3.50390625 C-1 1 -1 1 0 0 Z " fill="#878A8D" transform="translate(238,154)"/>
<path d="M0 0 C0.66 0 1.32 0 2 0 C2 1.32 2 2.64 2 4 C1.01 4 0.02 4 -1 4 C-1 4.66 -1 5.32 -1 6 C-3.97 6 -6.94 6 -10 6 C-10 5.34 -10 4.68 -10 4 C-6.3558226 1.5705484 -4.28758728 1.83820425 0 2 C0 1.34 0 0.68 0 0 Z " fill="#9E4955" transform="translate(232,204)"/>
<path d="M0 0 C1.98 0 3.96 0 6 0 C5.67 2.64 5.34 5.28 5 8 C3.35 8 1.7 8 0 8 C0 5.36 0 2.72 0 0 Z " fill="#FDF9FB" transform="translate(208,104)"/>
<path d="M0 0 C1.32 0 2.64 0 4 0 C4 2.64 4 5.28 4 8 C2.35 8 0.7 8 -1 8 C-1.04241723 5.66705225 -1.04092937 3.33297433 -1 1 C-0.67 0.67 -0.34 0.34 0 0 Z " fill="#61AFB1" transform="translate(75,93)"/>
<path d="M0 0 C0 1.32 0 2.64 0 4 C1.32 4 2.64 4 4 4 C4 4.66 4 5.32 4 6 C1.36 6 -1.28 6 -4 6 C-4 4.68 -4 3.36 -4 2 C-6.64 2 -9.28 2 -12 2 C-12 1.67 -12 1.34 -12 1 C-10.37512529 0.83211627 -8.75009558 0.66573213 -7.125 0.5 C-6.22007812 0.4071875 -5.31515625 0.314375 -4.3828125 0.21875 C-2 0 -2 0 0 0 Z " fill="#C4B796" transform="translate(152,164)"/>
<path d="M0 0 C0.99 1.32 1.98 2.64 3 4 C3.33 4 3.66 4 4 4 C4 6.64 4 9.28 4 12 C2.02 12.99 2.02 12.99 0 14 C0 9.38 0 4.76 0 0 Z " fill="#913045" transform="translate(168,140)"/>
<path d="M0 0 C4.62 0 9.24 0 14 0 C14 0.33 14 0.66 14 1 C12.02 1 10.04 1 8 1 C7.67 1.99 7.34 2.98 7 4 C4.69 4 2.38 4 0 4 C0 2.68 0 1.36 0 0 Z " fill="#6E4441" transform="translate(132,204)"/>
<path d="M0 0 C0.99 0.33 1.98 0.66 3 1 C2.67 3.64 2.34 6.28 2 9 C0.35 9 -1.3 9 -3 9 C-3 8.01 -3 7.02 -3 6 C-2.34 6 -1.68 6 -1 6 C-1.0309375 4.7934375 -1.0309375 4.7934375 -1.0625 3.5625 C-1 1 -1 1 0 0 Z " fill="#61B3B4" transform="translate(87,148)"/>
<path d="M0 0 C0.66 0 1.32 0 2 0 C2 0.66 2 1.32 2 2 C2.928125 2.2165625 2.928125 2.2165625 3.875 2.4375 C6 3 6 3 8 4 C8 4.66 8 5.32 8 6 C7.34 6 6.68 6 6 6 C5.67 6.99 5.34 7.98 5 9 C4.62875 8.525625 4.2575 8.05125 3.875 7.5625 C1.37353038 5.47794198 -0.81593418 5.35378509 -4 5 C-4 4.67 -4 4.34 -4 4 C-2.35 3.67 -0.7 3.34 1 3 C0.67 2.01 0.34 1.02 0 0 Z " fill="#F2AC46" transform="translate(214,86)"/>
<path d="M0 0 C0.66 0 1.32 0 2 0 C2 3.96 2 7.92 2 12 C1.01 12 0.02 12 -1 12 C-1.14285714 3.42857143 -1.14285714 3.42857143 0 0 Z " fill="#353236" transform="translate(229,154)"/>
<path d="M0 0 C1.65 0 3.3 0 5 0 C5.12375 0.804375 5.2475 1.60875 5.375 2.4375 C5.684375 3.7059375 5.684375 3.7059375 6 5 C6.66 5.33 7.32 5.66 8 6 C5.36 5.67 2.72 5.34 0 5 C0 3.35 0 1.7 0 0 Z " fill="#D2CEB3" transform="translate(125,156)"/>
<path d="M0 0 C0.33 0 0.66 0 1 0 C1 2.97 1 5.94 1 9 C1.99 8.67 2.98 8.34 4 8 C4 6.68 4 5.36 4 4 C4.66 4 5.32 4 6 4 C8 7 8 7 8 10 C5.36 10 2.72 10 0 10 C0 6.7 0 3.4 0 0 Z " fill="#65403D" transform="translate(46,200)"/>
<path d="M0 0 C0.99 0 1.98 0 3 0 C3 0.66 3 1.32 3 2 C6.3 2 9.6 2 13 2 C13.33 1.34 13.66 0.68 14 0 C14 0.99 14 1.98 14 3 C9.05 3.33 4.1 3.66 -1 4 C-0.67 2.68 -0.34 1.36 0 0 Z " fill="#552F40" transform="translate(231,208)"/>
<path d="M0 0 C0.33 0 0.66 0 1 0 C1 3.96 1 7.92 1 12 C0.34 12 -0.32 12 -1 12 C-1.33 12.66 -1.66 13.32 -2 14 C-1.85970581 11.8537974 -1.71261836 9.70803782 -1.5625 7.5625 C-1.48128906 6.36753906 -1.40007812 5.17257813 -1.31640625 3.94140625 C-1 1 -1 1 0 0 Z " fill="#82253A" transform="translate(203,194)"/>
<path d="M0 0 C0.33 0.66 0.66 1.32 1 2 C7.6 2 14.2 2 21 2 C21 2.33 21 2.66 21 3 C10.11 3.495 10.11 3.495 -1 4 C-0.67 2.68 -0.34 1.36 0 0 Z " fill="#4F4A57" transform="translate(82,160)"/>
<path d="M0 0 C2.31 0 4.62 0 7 0 C6.01 0.66 5.02 1.32 4 2 C4.99 2.66 5.98 3.32 7 4 C6.01 4 5.02 4 4 4 C3.67 4.99 3.34 5.98 3 7 C2.01 6.34 1.02 5.68 0 5 C-0.1875 2.375 -0.1875 2.375 0 0 Z " fill="#7F2636" transform="translate(169,139)"/>
<path d="M0 0 C1.37478516 0.01740234 1.37478516 0.01740234 2.77734375 0.03515625 C3.69644531 0.04417969 4.61554687 0.05320313 5.5625 0.0625 C6.27277344 0.07410156 6.98304687 0.08570313 7.71484375 0.09765625 C8.04484375 0.75765625 8.37484375 1.41765625 8.71484375 2.09765625 C7.27949534 2.32033085 5.8413885 2.52527531 4.40234375 2.72265625 C3.60183594 2.83867187 2.80132812 2.9546875 1.9765625 3.07421875 C-0.28515625 3.09765625 -0.28515625 3.09765625 -3.28515625 1.09765625 C-2.28515625 0.09765625 -2.28515625 0.09765625 0 0 Z " fill="#383940" transform="translate(13.28515625,211.90234375)"/>
<path d="M0 0 C0.99 0.33 1.98 0.66 3 1 C3 2.98 3 4.96 3 7 C1.68 7 0.36 7 -1 7 C-1.04254356 5.00045254 -1.04080783 2.99958364 -1 1 C-0.67 0.67 -0.34 0.34 0 0 Z " fill="#45243B" transform="translate(219,209)"/>
<path d="M0 0 C0.99 0.99 1.98 1.98 3 3 C1.02 6.63 -0.96 10.26 -3 14 C-4 11 -4 11 -2.625 8.125 C-2.08875 7.09375 -1.5525 6.0625 -1 5 C-0.30092586 2.26427415 -0.30092586 2.26427415 0 0 Z " fill="#958F94" transform="translate(196,153)"/>
<path d="M0 0 C0 2.31 0 4.62 0 7 C-0.66 6.34 -1.32 5.68 -2 5 C-2.33 7.97 -2.66 10.94 -3 14 C-3.33 14 -3.66 14 -4 14 C-4 9.71 -4 5.42 -4 1 C-1 0 -1 0 0 0 Z " fill="#732C45" transform="translate(256,134)"/>
<path d="M0 0 C0.99 0 1.98 0 3 0 C3 2.64 3 5.28 3 8 C2.01 8.33 1.02 8.66 0 9 C0 6.03 0 3.06 0 0 Z " fill="#27273A" transform="translate(215,106)"/>
<path d="M0 0 C1.9375 0.75 1.9375 0.75 4 2 C4.75 4.125 4.75 4.125 5 6 C3.68 6 2.36 6 1 6 C0.67 6.66 0.34 7.32 0 8 C0 5.36 0 2.72 0 0 Z " fill="#F7A44A" transform="translate(252,200)"/>
<path d="M0 0 C1.32 0 2.64 0 4 0 C4 2.31 4 4.62 4 7 C2.68 7 1.36 7 0 7 C0.2784375 6.1028125 0.2784375 6.1028125 0.5625 5.1875 C1.22093687 2.83591238 1.22093687 2.83591238 0 0 Z " fill="#57AEAF" transform="translate(74,127)"/>
<path d="M0 0 C0.33 0.66 0.66 1.32 1 2 C3.64 2 6.28 2 9 2 C9 2.66 9 3.32 9 4 C5.7 4 2.4 4 -1 4 C-0.67 2.68 -0.34 1.36 0 0 Z " fill="#6A253F" transform="translate(205,178)"/>
<path d="M0 0 C1.32 0 2.64 0 4 0 C3.67 3.3 3.34 6.6 3 10 C2.67 10 2.34 10 2 10 C2 8.02 2 6.04 2 4 C1.34 4 0.68 4 0 4 C0 2.68 0 1.36 0 0 Z " fill="#F7E8D0" transform="translate(240,108)"/>
<path d="M0 0 C0.33 0.99 0.66 1.98 1 3 C2.65 3 4.3 3 6 3 C6 3.99 6 4.98 6 6 C4.02 6 2.04 6 0 6 C0 4.02 0 2.04 0 0 Z " fill="#6DBBBD" transform="translate(73,98)"/>
<path d="M0 0 C0.33 0 0.66 0 1 0 C1 3.3 1 6.6 1 10 C0.01 10 -0.98 10 -2 10 C-1.34 6.7 -0.68 3.4 0 0 Z " fill="#8FC3C9" transform="translate(78,83)"/>
<path d="M0 0 C3.3 0 6.6 0 10 0 C10 0.33 10 0.66 10 1 C7.36 1 4.72 1 2 1 C1.67 2.32 1.34 3.64 1 5 C0.34 5 -0.32 5 -1 5 C-0.67 3.35 -0.34 1.7 0 0 Z " fill="#EBE8E1" transform="translate(54,170)"/>
<path d="M0 0 C1.4800841 0.11362262 2.95910074 0.24122908 4.4375 0.375 C5.26121094 0.44460937 6.08492188 0.51421875 6.93359375 0.5859375 C7.95646484 0.79089844 7.95646484 0.79089844 9 1 C9.33 1.66 9.66 2.32 10 3 C8.02 3.33 6.04 3.66 4 4 C3.67 3.34 3.34 2.68 3 2 C2.01 1.34 1.02 0.68 0 0 Z " fill="#525155" transform="translate(260,211)"/>
<path d="M0 0 C2.64 0 5.28 0 8 0 C7.67 1.32 7.34 2.64 7 4 C6.01 4 5.02 4 4 4 C4 3.01 4 2.02 4 1 C2.68 0.67 1.36 0.34 0 0 Z " fill="#502636" transform="translate(200,209)"/>
<path d="M0 0 C0 1.32 0 2.64 0 4 C-0.66 4 -1.32 4 -2 4 C-2 3.34 -2 2.68 -2 2 C-5.3 2 -8.6 2 -12 2 C-12 1.67 -12 1.34 -12 1 C-10.37512529 0.83211627 -8.75009558 0.66573213 -7.125 0.5 C-6.22007812 0.4071875 -5.31515625 0.314375 -4.3828125 0.21875 C-2 0 -2 0 0 0 Z " fill="#D2C4A2" transform="translate(152,164)"/>
<path d="M0 0 C3.63 0 7.26 0 11 0 C10.67 1.32 10.34 2.64 10 4 C9.34 3.34 8.68 2.68 8 2 C5.34462628 1.43479997 2.70855287 1.26211802 0 1 C0 0.67 0 0.34 0 0 Z " fill="#4B192E" transform="translate(188,151)"/>
</svg>
