<svg xmlns="http://www.w3.org/2000/svg" viewBox="0 0 500 500"><g id="freepik--background-complete--inject-40"><rect y="382.4" width="500" height="0.25" style="fill:#e6e6e6"></rect><rect x="65.29" y="392" width="10.61" height="0.25" style="fill:#e6e6e6"></rect><rect x="83.24" y="391.88" width="43.15" height="0.25" style="fill:#e6e6e6"></rect><rect x="112.18" y="397.67" width="34.15" height="0.25" style="fill:#e6e6e6"></rect><rect x="154.01" y="389.92" width="76.11" height="0.25" style="fill:#e6e6e6"></rect><rect x="349.33" y="394.14" width="53.94" height="0.25" style="fill:#e6e6e6"></rect><rect x="336.16" y="394.14" width="7.62" height="0.25" style="fill:#e6e6e6"></rect><rect x="376.83" y="389.79" width="52.89" height="0.25" style="fill:#e6e6e6"></rect><path d="M237,337.8H43.91a5.71,5.71,0,0,1-5.7-5.71V60.66A5.71,5.71,0,0,1,43.91,55H237a5.71,5.71,0,0,1,5.71,5.71V332.09A5.71,5.71,0,0,1,237,337.8ZM43.91,55.2a5.46,5.46,0,0,0-5.45,5.46V332.09a5.46,5.46,0,0,0,5.45,5.46H237a5.47,5.47,0,0,0,5.46-5.46V60.66A5.47,5.47,0,0,0,237,55.2Z" style="fill:#e6e6e6"></path><path d="M453.31,337.8H260.21a5.72,5.72,0,0,1-5.71-5.71V60.66A5.72,5.72,0,0,1,260.21,55h193.1A5.71,5.71,0,0,1,459,60.66V332.09A5.71,5.71,0,0,1,453.31,337.8ZM260.21,55.2a5.47,5.47,0,0,0-5.46,5.46V332.09a5.47,5.47,0,0,0,5.46,5.46h193.1a5.47,5.47,0,0,0,5.46-5.46V60.66a5.47,5.47,0,0,0-5.46-5.46Z" style="fill:#e6e6e6"></path><path d="M308.94,382.4H202.46a146.88,146.88,0,0,0,4.1-52.9c-2.33-22.95-9.94-46-22.82-68.13H290.21c12.88,22.11,20.49,45.18,22.83,68.13A146.9,146.9,0,0,1,308.94,382.4Z" style="fill:#e0e0e0"></path><path d="M306.61,382.4H200.13a146.88,146.88,0,0,0,4.1-52.9c-2.33-22.95-9.94-46-22.82-68.13H287.88c12.88,22.11,20.49,45.18,22.83,68.13A146.9,146.9,0,0,1,306.61,382.4Z" style="fill:#f5f5f5"></path><path d="M310.71,329.5H204.23c-2.33-22.95-9.94-46-22.82-68.13H287.88C300.76,283.48,308.37,306.55,310.71,329.5Z" style="fill:#e0e0e0"></path><rect x="73.61" y="96.17" width="349.06" height="222.98" rx="10.2" style="fill:#e0e0e0"></rect><rect x="71.79" y="96.17" width="349.06" height="222.98" rx="10.2" style="fill:#ebebeb"></rect><rect x="71.79" y="107.89" width="349.06" height="176.44" style="fill:#fff"></rect><path d="M294.29,374H172.75a8.42,8.42,0,0,0-8.42,8.42H302.71A8.42,8.42,0,0,0,294.29,374Z" style="fill:#f5f5f5"></path><path d="M323.25,374H301.49a8.42,8.42,0,0,0-8.42,8.42h38.6A8.42,8.42,0,0,0,323.25,374Z" style="fill:#e0e0e0"></path><rect x="190.94" y="72.81" width="214.47" height="163.51" rx="4.35" transform="translate(596.34 309.14) rotate(180)" style="fill:#e0e0e0"></rect><rect x="189.78" y="72.81" width="214.47" height="163.51" rx="4.35" transform="translate(594.03 309.14) rotate(180)" style="fill:#ebebeb"></rect><path d="M404.25,84.07V232a4.36,4.36,0,0,1-4.35,4.35H194.13a4.36,4.36,0,0,1-4.35-4.35V84.07Z" style="fill:#f0f0f0"></path><rect x="190.59" y="89.85" width="212.86" height="140.69" style="fill:#fff"></rect><path d="M392.39,78.47a2.31,2.31,0,1,0,2.31-2.31A2.31,2.31,0,0,0,392.39,78.47Z" style="fill:#fff"></path><path d="M384.19,78.47a2.31,2.31,0,1,0,2.31-2.31A2.31,2.31,0,0,0,384.19,78.47Z" style="fill:#fff"></path><path d="M376,78.47a2.31,2.31,0,1,0,2.31-2.31A2.31,2.31,0,0,0,376,78.47Z" style="fill:#fff"></path><rect x="189.78" y="83.78" width="214.47" height="0.58" transform="translate(594.03 168.13) rotate(180)" style="fill:#e0e0e0"></rect><rect x="170.16" y="93.6" width="214.47" height="163.51" rx="4.35" transform="translate(554.78 350.7) rotate(180)" style="fill:#e0e0e0"></rect><rect x="169" y="93.6" width="214.47" height="163.51" rx="4.35" transform="translate(552.47 350.7) rotate(180)" style="fill:#ebebeb"></rect><path d="M383.47,104.85v147.9a4.36,4.36,0,0,1-4.36,4.35H173.35a4.36,4.36,0,0,1-4.35-4.35V104.85Z" style="fill:#f0f0f0"></path><rect x="169.8" y="110.63" width="212.86" height="140.69" style="fill:#fff"></rect><circle cx="373.92" cy="99.25" r="2.31" style="fill:#fff"></circle><path d="M363.4,99.25a2.32,2.32,0,1,0,2.32-2.31A2.32,2.32,0,0,0,363.4,99.25Z" style="fill:#fff"></path><circle cx="357.52" cy="99.25" r="2.31" style="fill:#fff"></circle><rect x="169" y="104.56" width="214.47" height="0.58" transform="translate(552.47 209.69) rotate(180)" style="fill:#e0e0e0"></rect><path d="M346.11,178.32c-7.77,0-11.53-7.92-15.18-15.57-3.53-7.42-6.86-14.43-13.37-14.43s-9.84,7-13.37,14.43c-3.64,7.65-7.41,15.57-15.18,15.57s-11.53-7.92-15.17-15.57c-3.53-7.42-6.87-14.43-13.37-14.43s-9.84,7-13.37,14.43c-3.64,7.65-7.41,15.57-15.17,15.57s-11.54-7.92-15.18-15.57c-3.53-7.42-6.86-14.43-13.37-14.43s-9.84,7-13.37,14.43c-3.64,7.65-7.4,15.57-15.17,15.57s-11.53-7.92-15.18-15.57c-3.52-7.42-6.86-14.43-13.36-14.43s-9.84,7-13.37,14.43c-3.64,7.65-7.4,15.57-15.17,15.57s-11.53-7.92-15.17-15.57c-3.53-7.42-6.87-14.43-13.37-14.43v-2c7.77,0,11.53,7.92,15.17,15.57,3.53,7.42,6.87,14.43,13.37,14.43s9.84-7,13.37-14.43c3.64-7.65,7.4-15.57,15.17-15.57s11.53,7.92,15.17,15.57c3.53,7.42,6.86,14.43,13.37,14.43s9.84-7,13.37-14.43c3.64-7.65,7.4-15.57,15.17-15.57s11.53,7.92,15.18,15.57c3.53,7.42,6.86,14.43,13.37,14.43s9.83-7,13.36-14.43c3.65-7.65,7.41-15.57,15.18-15.57s11.53,7.92,15.18,15.57c3.53,7.42,6.86,14.43,13.36,14.43s9.85-7,13.38-14.43c3.64-7.65,7.4-15.57,15.17-15.57s11.54,7.92,15.18,15.57c3.53,7.42,6.87,14.43,13.37,14.43Z" style="fill:#fafafa"></path><path d="M346.11,224.33c-7.77,0-11.53-7.91-15.18-15.57-3.53-7.42-6.86-14.43-13.37-14.43s-9.84,7-13.37,14.43c-3.64,7.66-7.41,15.57-15.18,15.57s-11.53-7.91-15.17-15.57c-3.53-7.42-6.87-14.43-13.37-14.43s-9.84,7-13.37,14.43c-3.64,7.66-7.41,15.57-15.17,15.57s-11.54-7.91-15.18-15.57c-3.53-7.42-6.86-14.43-13.37-14.43s-9.84,7-13.37,14.43c-3.64,7.66-7.4,15.57-15.17,15.57s-11.53-7.91-15.18-15.57c-3.52-7.42-6.86-14.43-13.36-14.43s-9.84,7-13.37,14.43c-3.64,7.66-7.4,15.57-15.17,15.57s-11.53-7.91-15.17-15.57c-3.53-7.42-6.87-14.43-13.37-14.43v-2c7.77,0,11.53,7.92,15.17,15.57,3.53,7.42,6.87,14.43,13.37,14.43s9.84-7,13.37-14.43c3.64-7.65,7.4-15.57,15.17-15.57s11.53,7.92,15.17,15.57c3.53,7.42,6.86,14.43,13.37,14.43s9.84-7,13.37-14.43c3.64-7.65,7.4-15.57,15.17-15.57s11.53,7.92,15.18,15.57c3.53,7.42,6.86,14.43,13.37,14.43s9.83-7,13.36-14.43c3.65-7.65,7.41-15.57,15.18-15.57s11.53,7.92,15.18,15.57c3.53,7.42,6.86,14.43,13.36,14.43s9.85-7,13.38-14.43c3.64-7.65,7.4-15.57,15.17-15.57s11.54,7.92,15.18,15.57c3.53,7.42,6.87,14.43,13.37,14.43Z" style="fill:#fafafa"></path></g><g id="freepik--Shadow--inject-40"><ellipse cx="250" cy="416.24" rx="193.89" ry="11.32" style="fill:#f5f5f5"></ellipse></g><g id="freepik--Tabs--inject-40"><path d="M313,109.94h-53.3a9.35,9.35,0,0,0-8.7,5.93l-4.75,12h80.21l-4.75-12A9.35,9.35,0,0,0,313,109.94Z" style="fill:#FF4040"></path><path d="M313,109.94h-53.3a9.35,9.35,0,0,0-8.7,5.93l-4.75,12h80.21l-4.75-12A9.35,9.35,0,0,0,313,109.94Z" style="fill:#fff;opacity:0.4"></path><path d="M161.68,109.94h-53.3a9.36,9.36,0,0,0-8.71,5.93l-4.75,12h80.22l-4.75-12A9.36,9.36,0,0,0,161.68,109.94Z" style="fill:#FF4040"></path><path d="M161.68,109.94h-53.3a9.36,9.36,0,0,0-8.71,5.93l-4.75,12h80.22l-4.75-12A9.36,9.36,0,0,0,161.68,109.94Z" style="opacity:0.2"></path><path d="M406.73,126.55H250.28l-4.22-10.68a9.37,9.37,0,0,0-8.71-5.93h-53.3a9.35,9.35,0,0,0-8.71,5.93l-4.22,10.68H93.27a11,11,0,0,0-10.94,10.94V346.21a11,11,0,0,0,10.94,10.94H406.73a11,11,0,0,0,10.94-10.94V137.49A11,11,0,0,0,406.73,126.55Z" style="fill:#FF4040"></path><rect x="152.1" y="91.58" width="195.8" height="321.33" rx="3.73" transform="translate(502.25 2.25) rotate(90)" style="fill:#fff"></rect><rect x="199.79" y="206.13" width="53.67" height="15.91" style="fill:#FF4040"></rect><rect x="262.54" y="206.13" width="37.67" height="15.91" style="fill:#FF4040"></rect><rect x="78.83" y="194.72" width="1" height="19.37" style="fill:#FF4040"></rect><rect x="78.83" y="221.44" width="1" height="7.11" style="fill:#FF4040"></rect><rect x="117.99" y="160.86" width="17.05" height="3.8" style="fill:#FF4040"></rect><rect x="96.21" y="160.86" width="17.05" height="3.8" style="fill:#FF4040"></rect><path d="M332.5,266.68h-165V236.32h165Zm-164-1h163V237.32h-163Z" style="fill:#FF4040"></path><rect x="173.17" y="243.91" width="1" height="15.19" style="fill:#FF4040"></rect><rect x="207.22" y="276.35" width="85.56" height="3.8" style="fill:#FF4040"></rect><path d="M314.08,257.29a7.38,7.38,0,1,1,5.21-12.6h0a7.38,7.38,0,0,1-5.21,12.6Zm0-12.76a5.38,5.38,0,1,0,3.8,1.58A5.38,5.38,0,0,0,314.08,244.53Z" style="fill:#FF4040"></path><path d="M323.64,260.47a1,1,0,0,1-.71-.29l-5.05-5.05a1,1,0,0,1,1.42-1.42l5.05,5.06a1,1,0,0,1,0,1.41A1,1,0,0,1,323.64,260.47Z" style="fill:#FF4040"></path><path d="M332.5,266.68h-165V236.32h165Zm-164-1h163V237.32h-163Z" style="fill:#fff;opacity:0.6000000000000001"></path><rect x="173.17" y="243.91" width="1" height="15.19" style="fill:#fff;opacity:0.6000000000000001"></rect><rect x="207.22" y="276.35" width="85.56" height="3.8" style="fill:#fff;opacity:0.6000000000000001"></rect><rect x="117.99" y="160.86" width="17.05" height="3.8" style="fill:#fff;opacity:0.6000000000000001"></rect><rect x="96.21" y="160.86" width="17.05" height="3.8" style="fill:#fff;opacity:0.6000000000000001"></rect><g style="opacity:0.6000000000000001"><path d="M314.08,257.29a7.38,7.38,0,1,1,5.21-12.6h0a7.38,7.38,0,0,1-5.21,12.6Zm0-12.76a5.38,5.38,0,1,0,3.8,1.58A5.38,5.38,0,0,0,314.08,244.53Z" style="fill:#fff"></path><path d="M323.64,260.47a1,1,0,0,1-.71-.29l-5.05-5.05a1,1,0,0,1,1.42-1.42l5.05,5.06a1,1,0,0,1,0,1.41A1,1,0,0,1,323.64,260.47Z" style="fill:#fff"></path></g></g><g id="freepik--Character--inject-40"><path d="M367.36,148.07c-1,5-3,15,.45,18.35,0,0-1.35,5-10.59,5-10.16,0-4.85-5-4.85-5,5.54-1.32,5.4-5.43,4.43-9.3Z" style="fill:#e4897b"></path><path d="M351.79,168.05c-1.37.2-.1-2.93.47-3.26,1.31-.78,18-2.35,17.81-.59a4.71,4.71,0,0,1-1.3,2.77C368,167.5,363.8,166.12,351.79,168.05Z" style="fill:#FF4040"></path><path d="M351.79,168.05c-1.37.2-.1-2.93.47-3.26,1.31-.78,18-2.35,17.81-.59a4.71,4.71,0,0,1-1.3,2.77C368,167.5,363.8,166.12,351.79,168.05Z" style="fill:#fff;opacity:0.6000000000000001"></path><path d="M386,178.07c.52,2,1.09,4.2,1.71,6.3s1.21,4.26,1.86,6.38,1.31,4.26,2,6.37l1,3.18.26.79.1.28a1.15,1.15,0,0,0,.06.17,4.06,4.06,0,0,0,.46.81,15.16,15.16,0,0,0,4,3.59,47,47,0,0,0,5.51,3.12,122.34,122.34,0,0,0,12.18,5.07l-1,4.13a76.18,76.18,0,0,1-13.64-3.38,49,49,0,0,1-6.67-2.9,21.94,21.94,0,0,1-6.42-5,12,12,0,0,1-1.37-2.05c-.11-.19-.2-.39-.3-.6l-.21-.51-.34-.8c-.45-1.06-.9-2.12-1.32-3.2-.84-2.15-1.68-4.3-2.42-6.49s-1.48-4.38-2.15-6.6l-.94-3.36c-.31-1.15-.57-2.23-.84-3.49Z" style="fill:#e4897b"></path><path d="M389.46,181.61l-8.41,6.7-5.05,4s-.53-1.41-1.17-3.43c-1.22-3.9-2.81-10.08-1.71-12.92,1.73-4.5,5-8.56,9.14-7.66C385.74,169.09,389.46,181.61,389.46,181.61Z" style="fill:#FF4040"></path><path d="M389.46,181.61l-8.41,6.7-5.05,4s-.53-1.41-1.17-3.43c-1.22-3.9-2.81-10.08-1.71-12.92,1.73-4.5,5-8.56,9.14-7.66C385.74,169.09,389.46,181.61,389.46,181.61Z" style="fill:#fff;opacity:0.2"></path><path d="M381.05,188.31l-5.05,4s-.53-1.41-1.17-3.43l3-14.85Z" style="opacity:0.1"></path><path d="M338.21,168.57s-4,1.4,4,50.55h34c-.57-13.84-.59-22.38,6-50.8a100.28,100.28,0,0,0-14.45-1.9,107.4,107.4,0,0,0-15.44,0C345.73,167,338.21,168.57,338.21,168.57Z" style="fill:#FF4040"></path><path d="M338.21,168.57s-4,1.4,4,50.55h34c-.57-13.84-.59-22.38,6-50.8a100.28,100.28,0,0,0-14.45-1.9,107.4,107.4,0,0,0-15.44,0C345.73,167,338.21,168.57,338.21,168.57Z" style="fill:#fff;opacity:0.2"></path><polygon points="420.27 220.29 417.67 225.59 415.95 220 419.75 214.77 420.27 220.29" style="fill:#e4897b"></polygon><polygon points="322.67 407.63 314.51 405.74 318.33 386.71 326.49 388.6 322.67 407.63" style="fill:#e4897b"></polygon><polygon points="377.84 407.69 369.46 407.69 370.12 388.29 378.5 388.29 377.84 407.69" style="fill:#e4897b"></polygon><polygon points="318.33 386.72 316.28 396.91 324.52 398.41 326.5 388.61 318.33 386.72" style="fill:#ce6f64"></polygon><polygon points="378.5 388.29 370.12 388.29 369.79 398.29 378.17 398.29 378.5 388.29" style="fill:#ce6f64"></polygon><path d="M342.21,219.12s-9.44,64.5-12.76,89.84c-3.45,26.35-13.53,85.43-13.53,85.43l11.19,1.71s17.71-56.35,22.64-82c5.38-27.95,17.37-95,17.37-95Z" style="fill:#FF4040"></path><path d="M342.21,219.12s-9.44,64.5-12.76,89.84c-3.45,26.35-13.53,85.43-13.53,85.43l11.19,1.71s17.71-56.35,22.64-82c5.38-27.95,17.37-95,17.37-95Z" style="opacity:0.7000000000000001"></path><path d="M351.19,219.12s4.87,57.49,9.91,89.89c4.07,26.17,7.29,87.35,7.29,87.35h11.42s5.44-59.08,3.37-85c-5.23-65.49,3.95-77.09-6.95-92.27Z" style="fill:#FF4040"></path><path d="M351.19,219.12s4.87,57.49,9.91,89.89c4.07,26.17,7.29,87.35,7.29,87.35h11.42s5.44-59.08,3.37-85c-5.23-65.49,3.95-77.09-6.95-92.27Z" style="opacity:0.7000000000000001"></path><path d="M413.85,213.83l5.9.94L416,220s-5.78-2.09-5.55-5.56Z" style="fill:#e4897b"></path><path d="M365.94,408.18a2.38,2.38,0,0,1-1.6-.44,1.13,1.13,0,0,1-.33-1.05.68.68,0,0,1,.39-.56c1-.44,3.52,1.2,3.81,1.39a.2.2,0,0,1,.09.2.22.22,0,0,1-.15.16A10.26,10.26,0,0,1,365.94,408.18Zm-1.12-1.73a.62.62,0,0,0-.25,0,.3.3,0,0,0-.17.25.75.75,0,0,0,.21.71c.42.39,1.52.44,3,.15A7.23,7.23,0,0,0,364.82,406.45Z" style="fill:#FF4040"></path><path d="M368.1,407.88a.18.18,0,0,1-.1,0c-.8-.46-2.32-2.26-2.13-3.21a.69.69,0,0,1,.67-.55,1.05,1.05,0,0,1,.84.26c.91.81.92,3.22.92,3.33a.21.21,0,0,1-.1.17A.18.18,0,0,1,368.1,407.88Zm-1.42-3.39h-.09c-.26,0-.31.15-.33.24-.12.58.83,1.93,1.63,2.57a4.53,4.53,0,0,0-.78-2.64A.6.6,0,0,0,366.68,404.49Z" style="fill:#FF4040"></path><path d="M313.79,404.48h0c-1.35-.27-3.7-.89-4.22-2a1.08,1.08,0,0,1,0-1,.61.61,0,0,1,.51-.35c1.14-.14,3.59,2.72,3.87,3a.21.21,0,0,1-.16.33Zm-3.62-3h-.05a.25.25,0,0,0-.2.15.7.7,0,0,0,0,.67c.3.62,1.54,1.22,3.37,1.65C312.26,402.85,310.82,401.49,310.17,401.49Z" style="fill:#FF4040"></path><path d="M313.79,404.48a.21.21,0,0,1-.14-.07c-.75-.8-1.88-3.22-1.38-4a.72.72,0,0,1,.91-.23,1.44,1.44,0,0,1,.88.74c.64,1.21-.05,3.37-.08,3.46a.18.18,0,0,1-.14.13Zm-1-4c-.16,0-.2.07-.22.1-.3.49.39,2.32,1.09,3.28a4.53,4.53,0,0,0,0-2.8,1.05,1.05,0,0,0-.65-.54A.79.79,0,0,0,312.83,400.48Z" style="fill:#FF4040"></path><path d="M347.19,137.41a.39.39,0,0,1-.32-.16,3.16,3.16,0,0,0-2.52-1.38.4.4,0,1,1,0-.79,4,4,0,0,1,3.19,1.7.4.4,0,0,1-.09.56A.39.39,0,0,1,347.19,137.41Z" style="fill:#263238"></path><path d="M345,142.18a17.91,17.91,0,0,1-2.24,4.41,2.91,2.91,0,0,0,2.42.35Z" style="fill:#de5753"></path><path d="M345.53,141c0,.68-.31,1.24-.76,1.25s-.82-.51-.84-1.19.31-1.23.75-1.25S345.5,140.33,345.53,141Z" style="fill:#263238"></path><path d="M344.88,139.84l-1.64-.4S344.12,140.67,344.88,139.84Z" style="fill:#263238"></path><path d="M368.8,406.72h9.41a.66.66,0,0,1,.67.57l1.07,7.44a1.34,1.34,0,0,1-1.34,1.49c-3.28-.05-4.86-.25-9-.25-2.55,0-6.27.27-9.78.27s-3.7-3.48-2.24-3.79c6.56-1.42,7.6-3.36,9.81-5.22A2.21,2.21,0,0,1,368.8,406.72Z" style="fill:#263238"></path><path d="M314.67,403.59l8.69,3.61a.66.66,0,0,1,.4.78l-1.86,7.29a1.34,1.34,0,0,1-1.81.86c-3-1.31-4.4-2.09-8.22-3.68-2.35-1-7.32-2.75-10.57-4.1s-2.08-4.63-.61-4.36c6.6,1.22,9.74.41,12.49-.46A2.18,2.18,0,0,1,314.67,403.59Z" style="fill:#263238"></path><path d="M341.54,180a149.31,149.31,0,0,1-6.67,14.48c-1.23,2.36-2.53,4.71-4,7-.34.58-.74,1.15-1.11,1.72s-.76,1.15-1.19,1.71-.79,1.14-1.27,1.7l-.68.84-.34.42-.23.26-.27.29a12.09,12.09,0,0,1-4.73,2.92,22.54,22.54,0,0,1-4.52,1,41.79,41.79,0,0,1-8.42.14,80.87,80.87,0,0,1-15.82-2.86l.86-4.16c2.48.23,5.06.44,7.58.54s5.05.17,7.52.07a42,42,0,0,0,7.1-.78,15.35,15.35,0,0,0,3-.93,4.78,4.78,0,0,0,1.78-1.23l.89-1.24c.34-.45.65-1,1-1.48.64-1,1.26-2.07,1.87-3.14,1.21-2.15,2.34-4.41,3.46-6.66s2.16-4.58,3.21-6.9,2.07-4.68,3-7Z" style="fill:#e4897b"></path><path d="M293.61,210l-8.55-1.47,3.56-6.25s5.94,1.59,7.3,4.79Z" style="fill:#e4897b"></path><polygon points="279.42 206.5 281.65 202.74 288.62 202.26 285.06 208.52 279.42 206.5" style="fill:#e4897b"></polygon><path d="M368.13,137.79c-.18,8.31-.08,11.83-4.1,16.25-6,6.65-16.22,4.61-18.52-3.59-2.07-7.38-1.42-19.73,6.56-23.35A11.34,11.34,0,0,1,368.13,137.79Z" style="fill:#e4897b"></path><path d="M378.13,137.64h0c-.74-6-3.67-11.9-6.94-14.8-7.88-7-18.46-1.4-23.68,2.88-5.46,4.48-1.7,11.58,1.64,15.14a17.35,17.35,0,0,0,.58,3.77c-.52,3.28-2.71,6.53-5.78,9.15,10.39,3,25.6,3.25,31.22,1.16C382.43,152.25,379.5,150.13,378.13,137.64Z" style="fill:#263238"></path><path d="M352.19,141.64a6.92,6.92,0,0,1-1.9,4.17c-1.48,1.53-3,.65-3.27-1.16-.23-1.63.26-4.39,2.06-5.26S352.31,139.79,352.19,141.64Z" style="fill:#e4897b"></path><polygon points="314.27 394.43 328.61 396.87 330.24 391.46 314.89 388.83 314.27 394.43" style="fill:#FF4040"></polygon><polygon points="366.82 396.58 381.37 396.58 382.13 391.48 366.74 390.96 366.82 396.58" style="fill:#FF4040"></polygon><path d="M376.74,217.13l1.53,3c.12.24-.16.48-.55.48H342c-.3,0-.56-.15-.58-.35l-.3-3c0-.21.24-.39.58-.39h34.45A.6.6,0,0,1,376.74,217.13Z" style="fill:#FF4040"></path><path d="M376.74,217.13l1.53,3c.12.24-.16.48-.55.48H342c-.3,0-.56-.15-.58-.35l-.3-3c0-.21.24-.39.58-.39h34.45A.6.6,0,0,1,376.74,217.13Z" style="fill:#fff;opacity:0.6000000000000001"></path><path d="M372.11,221H373c.18,0,.32-.1.31-.21l-.44-4c0-.12-.17-.21-.35-.21h-.93c-.18,0-.32.09-.31.21l.44,4C371.77,220.88,371.93,221,372.11,221Z" style="fill:#FF4040"></path><path d="M349.75,221h.92c.18,0,.33-.1.31-.21l-.43-4c0-.12-.17-.21-.36-.21h-.92c-.18,0-.32.09-.31.21l.43,4C349.4,220.88,349.56,221,349.75,221Z" style="fill:#FF4040"></path><path d="M372.11,221H373c.18,0,.32-.1.31-.21l-.44-4c0-.12-.17-.21-.35-.21h-.93c-.18,0-.32.09-.31.21l.44,4C371.77,220.88,371.93,221,372.11,221Z" style="opacity:0.7000000000000001"></path><path d="M349.75,221h.92c.18,0,.33-.1.31-.21l-.43-4c0-.12-.17-.21-.36-.21h-.92c-.18,0-.32.09-.31.21l.43,4C349.4,220.88,349.56,221,349.75,221Z" style="opacity:0.7000000000000001"></path><path d="M338.21,168.57c-4.17,1-9.29,12.44-9.29,12.44l9.91,12.7s10.24-14.49,8.87-18.91C346.28,170.19,343.26,167.34,338.21,168.57Z" style="fill:#FF4040"></path><path d="M338.21,168.57c-4.17,1-9.29,12.44-9.29,12.44l9.91,12.7s10.24-14.49,8.87-18.91C346.28,170.19,343.26,167.34,338.21,168.57Z" style="fill:#fff;opacity:0.2"></path></g></svg>